<?xml version="1.0" encoding="UTF-8"?>
<svg width="204px" height="145px" viewBox="0 0 204 145" version="1.1" xmlns="http://www.w3.org/2000/svg" xmlns:xlink="http://www.w3.org/1999/xlink">
    <g fill="none" fill-rule="evenodd" stroke-linejoin="round" transform="translate(2.000000, 2.000000)" stroke-width="5">
            <path d="M156,108 L156,140 L28,140 L27.9993437,128.54 L49,117.5 L76.6259069,132.023799 L72.5053437,108 L156,108 Z"></path>
            <path d="M163,67 L163,99 L73.6693437,99 L93.6996563,79.4762013 L62.8129534,74.9881006 L58.8703437,67 L163,67 Z M39.1283437,67 L35.1870466,74.9881006 L27.9993437,76.032 L28,67 L39.1283437,67 Z"></path>
            <path d="M169,27 L169,58 L54.428,58 L49,47 L43.571,58 L28,58 L28,27 L169,27 Z"></path>
            <line x1="43.5" y1="42.5" x2="117.5" y2="42.5" stroke-linecap="round"></line>
            <line x1="90.5" y1="83.5" x2="109.5" y2="83.5" stroke-linecap="round"></line>
            <line x1="43.5" y1="124.5" x2="61.5" y2="124.5" stroke-linecap="round"></line>
            <line x1="75.5" y1="124.5" x2="102.5" y2="124.5" stroke-linecap="round"></line>
            <line x1="177.5" y1="54.5" x2="191.5" y2="61.5" stroke-linecap="round"></line>
            <line x1="177.5" y1="35.5" x2="199.5" y2="26.5" stroke-linecap="round"></line>
            <line x1="19.5" y1="37.5" x2="0.5" y2="34.5" stroke-linecap="round"></line>
            <line x1="34.5" y1="17.5" x2="27.5" y2="0.5" stroke-linecap="round"></line>
            <polygon points="49 117.5 21.3740931 132.023799 26.6501719 101.261899 4.30034373 79.4762013 35.1870466 74.9881006 49 47 62.8129534 74.9881006 93.6996563 79.4762013 71.3498281 101.261899 76.6259069 132.023799"></polygon>
    </g>
</svg>