<?xml version="1.0" encoding="UTF-8"?>
<svg width="24px" height="18px" viewBox="0 0 24 18" version="1.1" xmlns="http://www.w3.org/2000/svg" xmlns:xlink="http://www.w3.org/1999/xlink">
    <g stroke="none" stroke-width="1" fill-rule="evenodd">
        <g transform="translate(-38.000000, -170.000000)">
            <g transform="translate(38.000000, 170.000000)">
                <path d="M0.690647482,17.0935252 L23.3093525,17.0935252 L23.3093525,3.79856115 L0.690647482,3.79856115 L0.690647482,17.0935252 Z M0.690647482,3.10791367 L23.3093525,3.10791367 L23.3093525,0.690647482 L0.690647482,0.690647482 L0.690647482,3.10791367 Z M23.6546763,0 L0.345323741,0 C0.154705036,0 0,0.154532374 0,0.345323741 L0,17.4388489 C0,17.6294676 0.154705036,17.7841727 0.345323741,17.7841727 L23.6546763,17.7841727 C23.8454676,17.7841727 24,17.6294676 24,17.4388489 L24,0.345323741 C24,0.154532374 23.8454676,0 23.6546763,0 L23.6546763,0 Z"></path>
                <path d="M8.46043165,6.21582734 L9.32374101,6.21582734 L9.32374101,5.35251799 L8.46043165,5.35251799 L8.46043165,6.21582734 Z M9.66906475,4.6618705 L8.11510791,4.6618705 C7.92448921,4.6618705 7.76978417,4.81640288 7.76978417,5.00719424 L7.76978417,6.56115108 C7.76978417,6.75176978 7.92448921,6.90647482 8.11510791,6.90647482 L9.66906475,6.90647482 C9.85985612,6.90647482 10.0143885,6.75176978 10.0143885,6.56115108 L10.0143885,5.00719424 C10.0143885,4.81640288 9.85985612,4.6618705 9.66906475,4.6618705 L9.66906475,4.6618705 Z"></path>
                <path d="M11.5683453,6.21582734 L12.4316547,6.21582734 L12.4316547,5.35251799 L11.5683453,5.35251799 L11.5683453,6.21582734 Z M12.7769784,4.6618705 L11.2230216,4.6618705 C11.0324029,4.6618705 10.8776978,4.81640288 10.8776978,5.00719424 L10.8776978,6.56115108 C10.8776978,6.75176978 11.0324029,6.90647482 11.2230216,6.90647482 L12.7769784,6.90647482 C12.9677698,6.90647482 13.1223022,6.75176978 13.1223022,6.56115108 L13.1223022,5.00719424 C13.1223022,4.81640288 12.9677698,4.6618705 12.7769784,4.6618705 L12.7769784,4.6618705 Z"></path>
                <path d="M14.676259,6.21582734 L15.5395683,6.21582734 L15.5395683,5.35251799 L14.676259,5.35251799 L14.676259,6.21582734 Z M15.8848921,4.6618705 L14.3309353,4.6618705 C14.1403165,4.6618705 13.9856115,4.81640288 13.9856115,5.00719424 L13.9856115,6.56115108 C13.9856115,6.75176978 14.1403165,6.90647482 14.3309353,6.90647482 L15.8848921,6.90647482 C16.0756835,6.90647482 16.2302158,6.75176978 16.2302158,6.56115108 L16.2302158,5.00719424 C16.2302158,4.81640288 16.0756835,4.6618705 15.8848921,4.6618705 L15.8848921,4.6618705 Z"></path>
                <path d="M17.7841727,6.21582734 L18.647482,6.21582734 L18.647482,5.35251799 L17.7841727,5.35251799 L17.7841727,6.21582734 Z M18.9928058,4.6618705 L17.4388489,4.6618705 C17.2482302,4.6618705 17.0935252,4.81640288 17.0935252,5.00719424 L17.0935252,6.56115108 C17.0935252,6.75176978 17.2482302,6.90647482 17.4388489,6.90647482 L18.9928058,6.90647482 C19.1835971,6.90647482 19.3381295,6.75176978 19.3381295,6.56115108 L19.3381295,5.00719424 C19.3381295,4.81640288 19.1835971,4.6618705 18.9928058,4.6618705 L18.9928058,4.6618705 Z"></path>
                <path d="M20.8920863,6.21582734 L21.7553957,6.21582734 L21.7553957,5.35251799 L20.8920863,5.35251799 L20.8920863,6.21582734 Z M22.1007194,4.6618705 L20.5467626,4.6618705 C20.3561439,4.6618705 20.2014388,4.81640288 20.2014388,5.00719424 L20.2014388,6.56115108 C20.2014388,6.75176978 20.3561439,6.90647482 20.5467626,6.90647482 L22.1007194,6.90647482 C22.2915108,6.90647482 22.4460432,6.75176978 22.4460432,6.56115108 L22.4460432,5.00719424 C22.4460432,4.81640288 22.2915108,4.6618705 22.1007194,4.6618705 L22.1007194,4.6618705 Z"></path>
                <path d="M2.24460432,9.32374101 L3.10791367,9.32374101 L3.10791367,8.46043165 L2.24460432,8.46043165 L2.24460432,9.32374101 Z M3.45323741,7.76978417 L1.89928058,7.76978417 C1.70866187,7.76978417 1.55395683,7.92431655 1.55395683,8.11510791 L1.55395683,9.66906475 C1.55395683,9.85968345 1.70866187,10.0143885 1.89928058,10.0143885 L3.45323741,10.0143885 C3.64402878,10.0143885 3.79856115,9.85968345 3.79856115,9.66906475 L3.79856115,8.11510791 C3.79856115,7.92431655 3.64402878,7.76978417 3.45323741,7.76978417 L3.45323741,7.76978417 Z"></path>
                <path d="M5.35251799,9.32374101 L6.21582734,9.32374101 L6.21582734,8.46043165 L5.35251799,8.46043165 L5.35251799,9.32374101 Z M6.56115108,7.76978417 L5.00719424,7.76978417 C4.81657554,7.76978417 4.6618705,7.92431655 4.6618705,8.11510791 L4.6618705,9.66906475 C4.6618705,9.85968345 4.81657554,10.0143885 5.00719424,10.0143885 L6.56115108,10.0143885 C6.75194245,10.0143885 6.90647482,9.85968345 6.90647482,9.66906475 L6.90647482,8.11510791 C6.90647482,7.92431655 6.75194245,7.76978417 6.56115108,7.76978417 L6.56115108,7.76978417 Z"></path>
                <path d="M8.46043165,9.32374101 L9.32374101,9.32374101 L9.32374101,8.46043165 L8.46043165,8.46043165 L8.46043165,9.32374101 Z M9.66906475,7.76978417 L8.11510791,7.76978417 C7.92448921,7.76978417 7.76978417,7.92431655 7.76978417,8.11510791 L7.76978417,9.66906475 C7.76978417,9.85968345 7.92448921,10.0143885 8.11510791,10.0143885 L9.66906475,10.0143885 C9.85985612,10.0143885 10.0143885,9.85968345 10.0143885,9.66906475 L10.0143885,8.11510791 C10.0143885,7.92431655 9.85985612,7.76978417 9.66906475,7.76978417 L9.66906475,7.76978417 Z"></path>
                <path d="M11.5683453,9.32374101 L12.4316547,9.32374101 L12.4316547,8.46043165 L11.5683453,8.46043165 L11.5683453,9.32374101 Z M12.7769784,7.76978417 L11.2230216,7.76978417 C11.0324029,7.76978417 10.8776978,7.92431655 10.8776978,8.11510791 L10.8776978,9.66906475 C10.8776978,9.85968345 11.0324029,10.0143885 11.2230216,10.0143885 L12.7769784,10.0143885 C12.9677698,10.0143885 13.1223022,9.85968345 13.1223022,9.66906475 L13.1223022,8.11510791 C13.1223022,7.92431655 12.9677698,7.76978417 12.7769784,7.76978417 L12.7769784,7.76978417 Z"></path>
                <path d="M14.676259,9.32374101 L15.5395683,9.32374101 L15.5395683,8.46043165 L14.676259,8.46043165 L14.676259,9.32374101 Z M15.8848921,7.76978417 L14.3309353,7.76978417 C14.1403165,7.76978417 13.9856115,7.92431655 13.9856115,8.11510791 L13.9856115,9.66906475 C13.9856115,9.85968345 14.1403165,10.0143885 14.3309353,10.0143885 L15.8848921,10.0143885 C16.0756835,10.0143885 16.2302158,9.85968345 16.2302158,9.66906475 L16.2302158,8.11510791 C16.2302158,7.92431655 16.0756835,7.76978417 15.8848921,7.76978417 L15.8848921,7.76978417 Z"></path>
                <path d="M17.7841727,9.32374101 L18.647482,9.32374101 L18.647482,8.46043165 L17.7841727,8.46043165 L17.7841727,9.32374101 Z M18.9928058,7.76978417 L17.4388489,7.76978417 C17.2482302,7.76978417 17.0935252,7.92431655 17.0935252,8.11510791 L17.0935252,9.66906475 C17.0935252,9.85968345 17.2482302,10.0143885 17.4388489,10.0143885 L18.9928058,10.0143885 C19.1835971,10.0143885 19.3381295,9.85968345 19.3381295,9.66906475 L19.3381295,8.11510791 C19.3381295,7.92431655 19.1835971,7.76978417 18.9928058,7.76978417 L18.9928058,7.76978417 Z"></path>
                <path d="M20.8920863,9.32374101 L21.7553957,9.32374101 L21.7553957,8.46043165 L20.8920863,8.46043165 L20.8920863,9.32374101 Z M22.1007194,7.76978417 L20.5467626,7.76978417 C20.3561439,7.76978417 20.2014388,7.92431655 20.2014388,8.11510791 L20.2014388,9.66906475 C20.2014388,9.85968345 20.3561439,10.0143885 20.5467626,10.0143885 L22.1007194,10.0143885 C22.2915108,10.0143885 22.4460432,9.85968345 22.4460432,9.66906475 L22.4460432,8.11510791 C22.4460432,7.92431655 22.2915108,7.76978417 22.1007194,7.76978417 L22.1007194,7.76978417 Z"></path>
                <path d="M2.24460432,12.4316547 L3.10791367,12.4316547 L3.10791367,11.5683453 L2.24460432,11.5683453 L2.24460432,12.4316547 Z M3.45323741,10.8776978 L1.89928058,10.8776978 C1.70866187,10.8776978 1.55395683,11.0322302 1.55395683,11.2230216 L1.55395683,12.7769784 C1.55395683,12.9675971 1.70866187,13.1223022 1.89928058,13.1223022 L3.45323741,13.1223022 C3.64402878,13.1223022 3.79856115,12.9675971 3.79856115,12.7769784 L3.79856115,11.2230216 C3.79856115,11.0322302 3.64402878,10.8776978 3.45323741,10.8776978 L3.45323741,10.8776978 Z"></path>
                <path d="M5.35251799,12.4316547 L6.21582734,12.4316547 L6.21582734,11.5683453 L5.35251799,11.5683453 L5.35251799,12.4316547 Z M6.56115108,10.8776978 L5.00719424,10.8776978 C4.81657554,10.8776978 4.6618705,11.0322302 4.6618705,11.2230216 L4.6618705,12.7769784 C4.6618705,12.9675971 4.81657554,13.1223022 5.00719424,13.1223022 L6.56115108,13.1223022 C6.75194245,13.1223022 6.90647482,12.9675971 6.90647482,12.7769784 L6.90647482,11.2230216 C6.90647482,11.0322302 6.75194245,10.8776978 6.56115108,10.8776978 L6.56115108,10.8776978 Z"></path>
                <path d="M8.46043165,12.4316547 L9.32374101,12.4316547 L9.32374101,11.5683453 L8.46043165,11.5683453 L8.46043165,12.4316547 Z M9.66906475,10.8776978 L8.11510791,10.8776978 C7.92448921,10.8776978 7.76978417,11.0322302 7.76978417,11.2230216 L7.76978417,12.7769784 C7.76978417,12.9675971 7.92448921,13.1223022 8.11510791,13.1223022 L9.66906475,13.1223022 C9.85985612,13.1223022 10.0143885,12.9675971 10.0143885,12.7769784 L10.0143885,11.2230216 C10.0143885,11.0322302 9.85985612,10.8776978 9.66906475,10.8776978 L9.66906475,10.8776978 Z"></path>
                <path d="M11.5683453,12.4316547 L12.4316547,12.4316547 L12.4316547,11.5683453 L11.5683453,11.5683453 L11.5683453,12.4316547 Z M12.7769784,10.8776978 L11.2230216,10.8776978 C11.0324029,10.8776978 10.8776978,11.0322302 10.8776978,11.2230216 L10.8776978,12.7769784 C10.8776978,12.9675971 11.0324029,13.1223022 11.2230216,13.1223022 L12.7769784,13.1223022 C12.9677698,13.1223022 13.1223022,12.9675971 13.1223022,12.7769784 L13.1223022,11.2230216 C13.1223022,11.0322302 12.9677698,10.8776978 12.7769784,10.8776978 L12.7769784,10.8776978 Z"></path>
                <path d="M14.676259,12.4316547 L15.5395683,12.4316547 L15.5395683,11.5683453 L14.676259,11.5683453 L14.676259,12.4316547 Z M15.8848921,10.8776978 L14.3309353,10.8776978 C14.1403165,10.8776978 13.9856115,11.0322302 13.9856115,11.2230216 L13.9856115,12.7769784 C13.9856115,12.9675971 14.1403165,13.1223022 14.3309353,13.1223022 L15.8848921,13.1223022 C16.0756835,13.1223022 16.2302158,12.9675971 16.2302158,12.7769784 L16.2302158,11.2230216 C16.2302158,11.0322302 16.0756835,10.8776978 15.8848921,10.8776978 L15.8848921,10.8776978 Z"></path>
                <path d="M17.7841727,12.4316547 L18.647482,12.4316547 L18.647482,11.5683453 L17.7841727,11.5683453 L17.7841727,12.4316547 Z M18.9928058,10.8776978 L17.4388489,10.8776978 C17.2482302,10.8776978 17.0935252,11.0322302 17.0935252,11.2230216 L17.0935252,12.7769784 C17.0935252,12.9675971 17.2482302,13.1223022 17.4388489,13.1223022 L18.9928058,13.1223022 C19.1835971,13.1223022 19.3381295,12.9675971 19.3381295,12.7769784 L19.3381295,11.2230216 C19.3381295,11.0322302 19.1835971,10.8776978 18.9928058,10.8776978 L18.9928058,10.8776978 Z"></path>
                <path d="M20.8920863,12.4316547 L21.7553957,12.4316547 L21.7553957,11.5683453 L20.8920863,11.5683453 L20.8920863,12.4316547 Z M22.1007194,10.8776978 L20.5467626,10.8776978 C20.3561439,10.8776978 20.2014388,11.0322302 20.2014388,11.2230216 L20.2014388,12.7769784 C20.2014388,12.9675971 20.3561439,13.1223022 20.5467626,13.1223022 L22.1007194,13.1223022 C22.2915108,13.1223022 22.4460432,12.9675971 22.4460432,12.7769784 L22.4460432,11.2230216 C22.4460432,11.0322302 22.2915108,10.8776978 22.1007194,10.8776978 L22.1007194,10.8776978 Z"></path>
                <path d="M2.24460432,15.5395683 L3.10791367,15.5395683 L3.10791367,14.676259 L2.24460432,14.676259 L2.24460432,15.5395683 Z M3.45323741,13.9856115 L1.89928058,13.9856115 C1.70866187,13.9856115 1.55395683,14.1401439 1.55395683,14.3309353 L1.55395683,15.8848921 C1.55395683,16.0755108 1.70866187,16.2302158 1.89928058,16.2302158 L3.45323741,16.2302158 C3.64402878,16.2302158 3.79856115,16.0755108 3.79856115,15.8848921 L3.79856115,14.3309353 C3.79856115,14.1401439 3.64402878,13.9856115 3.45323741,13.9856115 L3.45323741,13.9856115 Z"></path>
                <path d="M5.35251799,15.5395683 L6.21582734,15.5395683 L6.21582734,14.676259 L5.35251799,14.676259 L5.35251799,15.5395683 Z M6.56115108,13.9856115 L5.00719424,13.9856115 C4.81657554,13.9856115 4.6618705,14.1401439 4.6618705,14.3309353 L4.6618705,15.8848921 C4.6618705,16.0755108 4.81657554,16.2302158 5.00719424,16.2302158 L6.56115108,16.2302158 C6.75194245,16.2302158 6.90647482,16.0755108 6.90647482,15.8848921 L6.90647482,14.3309353 C6.90647482,14.1401439 6.75194245,13.9856115 6.56115108,13.9856115 L6.56115108,13.9856115 Z"></path>
                <path d="M8.46043165,15.5395683 L9.32374101,15.5395683 L9.32374101,14.676259 L8.46043165,14.676259 L8.46043165,15.5395683 Z M9.66906475,13.9856115 L8.11510791,13.9856115 C7.92448921,13.9856115 7.76978417,14.1401439 7.76978417,14.3309353 L7.76978417,15.8848921 C7.76978417,16.0755108 7.92448921,16.2302158 8.11510791,16.2302158 L9.66906475,16.2302158 C9.85985612,16.2302158 10.0143885,16.0755108 10.0143885,15.8848921 L10.0143885,14.3309353 C10.0143885,14.1401439 9.85985612,13.9856115 9.66906475,13.9856115 L9.66906475,13.9856115 Z"></path>
                <path d="M11.5683453,15.5395683 L12.4316547,15.5395683 L12.4316547,14.676259 L11.5683453,14.676259 L11.5683453,15.5395683 Z M12.7769784,13.9856115 L11.2230216,13.9856115 C11.0324029,13.9856115 10.8776978,14.1401439 10.8776978,14.3309353 L10.8776978,15.8848921 C10.8776978,16.0755108 11.0324029,16.2302158 11.2230216,16.2302158 L12.7769784,16.2302158 C12.9677698,16.2302158 13.1223022,16.0755108 13.1223022,15.8848921 L13.1223022,14.3309353 C13.1223022,14.1401439 12.9677698,13.9856115 12.7769784,13.9856115 L12.7769784,13.9856115 Z"></path>
                <path d="M14.676259,15.5395683 L15.5395683,15.5395683 L15.5395683,14.676259 L14.676259,14.676259 L14.676259,15.5395683 Z M15.8848921,13.9856115 L14.3309353,13.9856115 C14.1403165,13.9856115 13.9856115,14.1401439 13.9856115,14.3309353 L13.9856115,15.8848921 C13.9856115,16.0755108 14.1403165,16.2302158 14.3309353,16.2302158 L15.8848921,16.2302158 C16.0756835,16.2302158 16.2302158,16.0755108 16.2302158,15.8848921 L16.2302158,14.3309353 C16.2302158,14.1401439 16.0756835,13.9856115 15.8848921,13.9856115 L15.8848921,13.9856115 Z"></path>
                <path d="M17.7841727,15.5395683 L18.647482,15.5395683 L18.647482,14.676259 L17.7841727,14.676259 L17.7841727,15.5395683 Z M18.9928058,13.9856115 L17.4388489,13.9856115 C17.2482302,13.9856115 17.0935252,14.1401439 17.0935252,14.3309353 L17.0935252,15.8848921 C17.0935252,16.0755108 17.2482302,16.2302158 17.4388489,16.2302158 L18.9928058,16.2302158 C19.1835971,16.2302158 19.3381295,16.0755108 19.3381295,15.8848921 L19.3381295,14.3309353 C19.3381295,14.1401439 19.1835971,13.9856115 18.9928058,13.9856115 L18.9928058,13.9856115 Z"></path>
                <path d="M6.56118561,2.24456978 L17.4388835,2.24456978 C17.6295022,2.24456978 17.7842072,2.08986475 17.7842072,1.89924604 C17.7842072,1.70862734 17.6295022,1.5539223 17.4388835,1.5539223 L6.56118561,1.5539223 C6.37056691,1.5539223 6.21586187,1.70862734 6.21586187,1.89924604 C6.21586187,2.08986475 6.37056691,2.24456978 6.56118561,2.24456978"></path>
            </g>
        </g>
    </g>
</svg>