<?xml version="1.0" encoding="utf-8"?>
<svg version="1.1" id="Layer_1" xmlns="http://www.w3.org/2000/svg" xmlns:xlink="http://www.w3.org/1999/xlink" x="0px" y="0px" viewBox="0 0 64 64" style="enable-background:new 0 0 64 64;" xml:space="preserve">
	<g stroke="none">
		<path d="M61.5,20.88c0.11-0.05,0.19-0.09,0.26-0.13c-0.41-3.07-0.94-3.47-4.6-4.25
			c-0.6-0.13-0.98-0.71-0.85-1.31c0.13-0.6,0.71-0.98,1.31-0.85c4.67,1,5.83,2.1,6.38,6.49L64,20.97c0,2.41-5.23,3.31-13.24,3.31
			s-13.24-0.91-13.24-3.31l0.01-0.14c0.55-4.39,1.71-5.49,6.38-6.49c0.6-0.13,1.18,0.25,1.31,0.85c0.13,0.6-0.25,1.18-0.85,1.31
			c-3.67,0.78-4.19,1.18-4.61,4.25c0.07,0.04,0.15,0.08,0.26,0.13c0.51,0.22,1.31,0.44,2.34,0.62c2.13,0.37,5.1,0.57,8.39,0.57
			s6.27-0.2,8.39-0.57C60.19,21.32,60.99,21.1,61.5,20.88z M55.17,7.72c0-3.6-1.28-5.52-4.41-5.52c-3.14,0-4.41,1.92-4.41,5.52
			c0,3.43,1.85,6.62,4.41,6.62S55.17,11.15,55.17,7.72z M57.38,7.72c0,4.48-2.51,8.83-6.62,8.83s-6.62-4.34-6.62-8.83
			c0-4.68,2.03-7.72,6.62-7.72S57.38,3.05,57.38,7.72z M23.98,20.88c0.11-0.05,0.19-0.09,0.26-0.13c-0.41-3.07-0.94-3.47-4.6-4.25
			c-0.6-0.13-0.98-0.71-0.85-1.31c0.13-0.6,0.71-0.98,1.31-0.85c4.67,1,5.83,2.1,6.38,6.49l0.01,0.14c0,2.41-5.23,3.31-13.24,3.31
			S0,23.37,0,20.97l0.01-0.14c0.55-4.39,1.71-5.49,6.38-6.49c0.6-0.13,1.18,0.25,1.31,0.85c0.13,0.6-0.25,1.18-0.85,1.31
			c-3.67,0.78-4.19,1.18-4.61,4.25c0.07,0.04,0.15,0.08,0.26,0.13c0.51,0.22,1.31,0.44,2.34,0.62c2.13,0.37,5.1,0.57,8.39,0.57
			s6.27-0.2,8.39-0.57C22.67,21.32,23.47,21.1,23.98,20.88z M17.66,7.72c0-3.6-1.28-5.52-4.41-5.52S8.83,4.12,8.83,7.72
			c0,3.43,1.85,6.62,4.41,6.62S17.66,11.15,17.66,7.72z M19.86,7.72c0,4.48-2.51,8.83-6.62,8.83s-6.62-4.34-6.62-8.83
			C6.62,3.05,8.65,0,13.24,0S19.86,3.05,19.86,7.72z M42.74,62.81c0.11-0.05,0.19-0.09,0.26-0.13c-0.41-3.07-0.94-3.47-4.6-4.25
			c-0.6-0.13-0.98-0.71-0.85-1.31c0.13-0.6,0.71-0.98,1.31-0.85c4.67,1,5.83,2.1,6.38,6.49l0.01,0.14c0,2.41-5.23,3.31-13.24,3.31
			S18.76,65.3,18.76,62.9l0.01-0.14c0.55-4.39,1.71-5.49,6.38-6.49c0.6-0.13,1.18,0.25,1.31,0.85c0.13,0.6-0.25,1.18-0.85,1.31
			c-3.67,0.78-4.19,1.18-4.61,4.25c0.07,0.04,0.15,0.08,0.26,0.13c0.51,0.22,1.31,0.44,2.34,0.62C25.73,63.8,28.71,64,32,64
			s6.27-0.2,8.39-0.57C41.43,63.25,42.23,63.03,42.74,62.81z M36.41,49.66c0-3.6-1.28-5.52-4.41-5.52c-3.14,0-4.41,1.92-4.41,5.52
			c0,3.43,1.85,6.62,4.41,6.62S36.41,53.08,36.41,49.66z M38.62,49.66c0,4.48-2.51,8.83-6.62,8.83s-6.62-4.34-6.62-8.83
			c0-4.68,2.03-7.72,6.62-7.72S38.62,44.98,38.62,49.66z M33.1,31.54v7.08c0,0.61-0.49,1.1-1.1,1.1c-0.61,0-1.1-0.49-1.1-1.1v-7.08
			l-7.17-4.1c-0.53-0.3-0.71-0.98-0.41-1.51c0.3-0.53,0.98-0.71,1.51-0.41l7.18,4.1l7.18-4.1c0.53-0.3,1.2-0.12,1.51,0.41
			c0.3,0.53,0.12,1.2-0.41,1.51L33.1,31.54z"/>
	</g>
</svg>
