<?xml version="1.0" standalone="no"?>
<!DOCTYPE svg PUBLIC "-//W3C//DTD SVG 20010904//EN"
 "http://www.w3.org/TR/2001/REC-SVG-20010904/DTD/svg10.dtd">
<svg version="1.0" xmlns="http://www.w3.org/2000/svg"
 width="1716.000000pt" height="1762.000000pt" viewBox="0 0 1716.000000 1762.000000"
 preserveAspectRatio="xMidYMid meet">

<g transform="translate(0.000000,1762.000000) scale(0.100000,-0.100000)"
 stroke="none">
<path d="M220 17601 c-94 -29 -171 -102 -195 -186 -13 -44 -15 -754 -13 -5655
l3 -5605 31 -55 c17 -30 50 -70 73 -87 88 -68 -96 -63 2460 -63 l2315 0 85
-72 c542 -461 1185 -1225 1676 -1989 360 -560 499 -750 772 -1052 185 -204
446 -436 626 -555 37 -25 67 -48 67 -52 0 -4 -25 -24 -55 -45 -153 -105 -276
-290 -328 -493 -21 -83 -22 -106 -22 -512 0 -406 1 -429 22 -512 80 -315 302
-540 622 -631 l76 -22 2240 -3 c1542 -2 2265 1 2322 8 302 39 567 241 679 518
59 146 59 149 59 642 0 515 0 518 -80 686 -85 178 -230 322 -400 400 l-55 26
117 87 c506 378 825 915 930 1566 14 86 17 234 20 1052 l4 953 1332 2 1332 3
46 23 c59 29 111 81 141 141 l23 46 0 5615 c0 5309 -1 5617 -17 5653 -28 62
-73 111 -130 143 l-53 29 -8350 2 c-4592 1 -8361 -2 -8375 -6z m16360 -5816
l0 -5265 -1154 0 -1154 0 -5 353 c-4 349 -7 381 -43 499 -5 16 35 17 588 20
581 3 594 3 639 24 66 31 123 86 150 147 l24 52 0 4115 0 4115 -21 46 c-30 64
-77 114 -136 143 l-52 26 -6830 0 c-6662 0 -6832 -1 -6872 -19 -62 -28 -119
-84 -145 -144 l-24 -52 0 -4115 0 -4115 24 -52 c27 -61 84 -116 150 -147 l46
-21 2998 -3 2997 -2 0 -556 c0 -306 -4 -554 -8 -552 -4 2 -53 53 -109 113
-464 508 -1007 828 -1503 885 -128 15 -353 8 -468 -15 -236 -46 -471 -156
-619 -289 -104 -94 -225 -284 -264 -413 l-12 -43 -2104 0 -2103 0 0 5258 c0
2892 3 5262 7 5265 3 4 3606 7 8005 7 l7998 0 0 -5265z m-1520 -53 l0 -3769
-307 -6 c-170 -4 -445 -7 -613 -7 -168 0 -320 -4 -338 -9 -27 -8 -42 -5 -90
19 -271 134 -607 127 -881 -20 -41 -22 -76 -38 -77 -37 -1 1 -9 43 -18 94 -49
287 -216 532 -463 679 -313 187 -704 185 -1015 -6 -26 -17 -50 -30 -52 -30 -2
0 -9 21 -16 48 -16 65 -79 197 -130 273 -59 86 -179 204 -269 264 -164 108
-339 158 -546 157 -161 0 -282 -29 -424 -99 -53 -26 -99 -49 -103 -51 -5 -2
-8 262 -8 586 l0 590 143 4 c122 3 148 6 183 25 57 31 103 78 130 138 l24 50
0 1290 0 1290 -24 50 c-30 66 -104 131 -171 150 -44 13 -219 15 -1331 13
l-1279 -3 -55 -31 c-30 -17 -70 -50 -87 -73 -67 -86 -64 -14 -61 -1422 l3
-1274 27 -51 c15 -29 46 -68 69 -87 67 -58 109 -67 306 -67 l173 0 0 -1225 0
-1225 -2825 0 -2825 0 0 3770 0 3770 6475 0 6475 0 0 -3768z m-5430 221 l0
-898 -53 89 c-186 315 -552 509 -907 481 -362 -29 -662 -237 -822 -570 -37
-78 -43 -85 -69 -85 l-29 0 0 940 0 940 940 0 940 0 0 -897z m-720 -797 c123
-42 244 -147 302 -259 57 -113 53 72 58 -2252 l5 -2130 22 -40 c41 -77 108
-118 194 -119 81 -1 144 34 186 103 l32 53 3 997 3 996 26 71 c53 145 144 246
283 314 136 67 277 74 416 21 148 -56 265 -175 322 -326 l23 -60 5 -1005 c4
-727 8 -1012 17 -1031 43 -97 157 -155 254 -129 61 16 111 53 140 103 l24 42
5 720 c6 714 6 721 28 779 85 226 280 368 507 370 253 1 472 -171 530 -416 12
-53 15 -194 15 -873 l0 -810 24 -51 c77 -165 315 -165 392 0 l24 51 0 425 c0
472 5 515 62 622 141 265 451 367 718 236 86 -41 196 -151 239 -237 63 -124
61 -54 61 -1662 0 -951 -4 -1503 -10 -1570 -41 -401 -199 -767 -462 -1074
-298 -346 -715 -576 -1178 -647 -67 -10 -412 -13 -1660 -13 l-1575 0 -97 27
c-336 93 -662 308 -1013 669 -278 286 -451 515 -808 1074 -271 425 -644 921
-992 1320 -180 206 -586 614 -747 750 -130 109 -123 95 -91 200 40 128 128
248 233 315 73 47 206 97 318 120 446 90 938 -114 1431 -595 191 -186 312
-326 498 -572 79 -106 159 -204 177 -218 96 -73 254 -35 316 75 l25 45 5 2600
5 2600 22 60 c30 77 83 157 146 217 61 58 189 124 267 137 80 14 192 5 270
-23z m4075 -9260 c145 -38 260 -148 300 -288 14 -48 15 -110 13 -450 l-3 -393
-32 -67 c-38 -81 -104 -155 -171 -191 -112 -61 40 -57 -2359 -57 -1586 0
-2207 3 -2245 11 -167 36 -301 177 -328 346 -13 76 -13 671 0 747 20 122 99
239 201 299 100 59 -44 56 2364 56 1813 1 2219 -2 2260 -13z"/>
<path d="M2779 13404 c-61 -18 -136 -86 -165 -149 l-24 -50 0 -1290 0 -1290
24 -50 c27 -59 72 -107 130 -138 l41 -22 1289 -3 c1431 -3 1342 -7 1424 64 22
19 53 60 69 92 l28 57 0 1290 0 1290 -28 57 c-33 68 -82 111 -155 138 -52 20
-81 20 -1320 19 -1062 0 -1274 -3 -1313 -15z m2251 -1494 l0 -940 -940 0 -940
0 0 940 0 940 940 0 940 0 0 -940z"/>
<path d="M11822 13405 c-96 -30 -171 -112 -192 -210 -7 -34 -10 -450 -8 -1310
l3 -1260 28 -57 c32 -65 70 -101 143 -135 l51 -23 1294 2 1294 3 54 30 c56 31
106 88 128 148 8 24 12 361 12 1322 l1 1290 -24 50 c-28 62 -77 111 -136 139
l-45 21 -1280 2 c-1054 1 -1288 -1 -1323 -12z m2248 -1495 l0 -940 -940 0
-940 0 0 940 0 940 940 0 940 0 0 -940z"/>
</g>
</svg>
