<?xml version="1.0" encoding="utf-8"?>
<!-- Generator: Adobe Illustrator 23.0.6, SVG Export Plug-In . SVG Version: 6.00 Build 0)  -->
<svg version="1.1" id="Layer_1" xmlns="http://www.w3.org/2000/svg" xmlns:xlink="http://www.w3.org/1999/xlink" x="0px" y="0px"
	 viewBox="-8 -8 80 80" xml:space="preserve">
<path stroke="none" d="M58.99,52.19c-0.36-0.54-0.74-1.06-1.13-1.54c-0.39,0.49-0.78,1.02-1.14,1.57
	c-1.21,1.82-1.97,3.61-2.09,5.19c-0.01,0.15-0.02,0.29-0.02,0.43c0,1.79,1.45,3.25,3.24,3.25c1.79,0,3.25-1.45,3.25-3.25
	C61.09,56.13,60.31,54.18,58.99,52.19z M64,57.85c0,3.4-2.75,6.15-6.15,6.15c-3.4,0-6.15-2.76-6.15-6.15c0-0.22,0.01-0.44,0.03-0.66
	c0.17-2.16,1.11-4.37,2.57-6.57c0.55-0.83,1.13-1.59,1.72-2.29c0.35-0.42,0.64-0.73,0.81-0.9c0.57-0.58,1.5-0.58,2.07-0.01
	c0.17,0.17,0.45,0.47,0.81,0.89c0.59,0.68,1.17,1.45,1.72,2.27C63.02,53,64,55.45,64,57.85z M7.75,55.32c0,0.54,0.43,0.97,0.97,0.97
	c0.53,0,0.97-0.43,0.97-0.97s-0.43-0.97-0.97-0.97C8.19,54.35,7.75,54.79,7.75,55.32z M4.84,55.32c0-2.14,1.73-3.88,3.87-3.88
	c2.14,0,3.88,1.74,3.88,3.88c0,2.14-1.73,3.88-3.88,3.88C6.58,59.2,4.84,57.46,4.84,55.32z M5.27,60.04
	c2.33,1.72,5.71,1.27,7.81-1.01c1.12-1.22,2.08-2.64,3.41-4.93c0.19-0.33,1.49-2.63,1.9-3.33c0.79-1.35,1.49-2.47,2.24-3.55
	c1.18-1.71,2.43-3.23,3.85-4.65c2.44-2.44,6.39-2.44,8.82,0l7.61,7.61c0.38,0.38,0.99,0.38,1.37,0l4-4.01L17.86,17.73l-4.02,4.03
	c-0.37,0.36-0.37,0.96,0,1.33l7.63,7.63c2.44,2.44,2.44,6.39,0,8.82c-1.42,1.42-2.95,2.67-4.65,3.86c-1.08,0.75-2.2,1.45-3.55,2.24
	c-0.7,0.41-2.99,1.71-3.32,1.9c-2.55,1.47-4.07,2.53-5.36,3.82C2.11,53.83,2.4,57.93,5.27,60.04z M31.23,4.35
	c0.35,0.95,0.2,2.17-0.24,4.37c-0.09,0.45-0.14,0.72-0.19,1c-0.29,1.7-0.18,2.62,0.4,3.2c0.57,0.57,1.54,0.59,3.61,0.1
	c0.15-0.04,0.3-0.07,0.54-0.13c3.47-0.85,4.82-0.92,6.26,0.53c0.21,0.21,0.39,0.42,0.55,0.64c1.21,1.7,0.93,3.51-0.16,5.09
	c-0.33,0.47-0.66,0.83-0.85,1l-4.18,4.18c-0.04,0.05-0.15,0.19-0.25,0.39c-0.3,0.56-0.36,1.06-0.11,1.5
	c0.07,0.12,0.17,0.24,0.29,0.37c0.1,0.1,0.2,0.19,0.3,0.25c0.45,0.3,0.93,0.25,1.49-0.06c0.19-0.11,0.33-0.21,0.32-0.2l4.8-4.8
	c0.23-0.2,0.59-0.47,1.06-0.73c1.62-0.89,3.43-1.07,5.13,0.02c0.33,0.21,0.64,0.47,0.94,0.76c1.33,1.33,1.58,3,1.29,5.42
	c-0.04,0.31-0.08,0.58-0.15,1.05c-0.28,1.89-0.28,2.54-0.11,2.71c0.2,0.2,0.92,0.22,2.34-0.08c0.17-0.04,0.35-0.07,0.61-0.13
	c2.94-0.65,3.69-0.72,4.72,0.32c0.3,0.3,0.52,0.64,0.67,1l0.5-0.5c0.37-0.37,0.37-0.96,0-1.33L33.72,3.18
	c-0.37-0.37-0.96-0.37-1.32,0L31.23,4.35z M28.29,7.29l-8.38,8.39l28.42,28.44l8.94-8.95c0.05-0.11,0.1-0.25,0.16-0.41
	c0.13-0.38,0.22-0.75,0.24-1.06c0.02-0.26-0.01-0.41-0.05-0.48l0.02,0.02c0.03,0.05-0.05,0.05-0.26,0.07
	c-0.39,0.03-0.72,0.1-1.82,0.34c-0.27,0.06-0.46,0.1-0.64,0.14c-2.37,0.49-3.83,0.45-4.99-0.71c-1.16-1.16-1.17-2.18-0.71-5.2
	c0.07-0.44,0.1-0.7,0.14-0.97c0.2-1.6,0.06-2.48-0.46-3.01c-0.15-0.15-0.3-0.27-0.45-0.37c-0.66-0.42-1.38-0.35-2.16,0.08
	c-0.26,0.14-0.45,0.28-0.46,0.29l-4.8,4.8c-0.2,0.18-0.51,0.41-0.91,0.63c-1.42,0.78-3.01,0.93-4.51-0.07
	c-0.26-0.17-0.51-0.38-0.75-0.62c-0.3-0.3-0.55-0.62-0.75-0.96c-0.85-1.45-0.68-2.97,0.06-4.34c0.22-0.41,0.45-0.73,0.69-1
	l4.31-4.31c0.09-0.08,0.27-0.27,0.45-0.54c0.47-0.68,0.56-1.24,0.19-1.75c-0.06-0.09-0.14-0.18-0.23-0.27
	c-0.37-0.37-1.17-0.33-3.51,0.24c-0.25,0.06-0.4,0.1-0.56,0.14c-3.01,0.71-4.8,0.67-6.34-0.88c-1.43-1.43-1.64-3.2-1.21-5.74
	c0.05-0.32,0.11-0.61,0.21-1.09C28.19,7.83,28.25,7.54,28.29,7.29z M59.56,37.01c-0.02,0.03-0.05,0.05-0.08,0.08l-10.1,10.11
	c0,0-0.01,0.01-0.01,0.01l-5.03,5.04c-1.51,1.52-3.97,1.52-5.48,0l-7.61-7.61c-1.3-1.3-3.41-1.3-4.71,0
	c-1.29,1.29-2.43,2.68-3.52,4.25c-0.7,1.01-1.37,2.07-2.12,3.36c-0.4,0.68-1.7,2.97-1.9,3.31c-1.42,2.46-2.49,4.04-3.78,5.45
	c-3.07,3.34-8.11,4.02-11.68,1.38c-4.3-3.17-4.74-9.35-1.01-13.08c1.5-1.5,3.21-2.69,5.96-4.28c0.34-0.2,2.63-1.5,3.31-1.9
	c1.29-0.75,2.35-1.42,3.36-2.12c1.57-1.09,2.96-2.23,4.25-3.53c1.3-1.3,1.3-3.41,0-4.71l-7.63-7.64c-1.5-1.5-1.5-3.94,0-5.44
	l5.04-5.05c0,0,0.01-0.01,0.01-0.01L30.33,1.13c1.5-1.51,3.94-1.51,5.44,0l27.1,27.12c1.5,1.5,1.5,3.94,0,5.44L59.56,37.01z"/>
</svg>
