<?xml version="1.0" encoding="utf-8"?>
<!-- Generator: Adobe Illustrator 27.5.0, SVG Export Plug-In . SVG Version: 6.00 Build 0)  -->
<svg version="1.1" id="Layer_1" xmlns="http://www.w3.org/2000/svg" xmlns:xlink="http://www.w3.org/1999/xlink" x="0px" y="0px"
	 width="1716px" height="1762px" viewBox="0 0 1716 1762" style="enable-background:new 0 0 1716 1762;" xml:space="preserve">
<g>
	<g>
		<path d="M1317.4,650.3c-0.4,0-0.8,0-1.2,0l-0.5,0l0-64c0.5,0,1,0,1.6,0l0.4,0L1317.4,650.3z"/>
	</g>
	<path d="M1547.9,682.9c-54.5-54.8-125.1-88-201.1-95.1v-71.6H128.2v1021.3c0,108.8,88.5,197.3,197.3,197.3h824.1
		c108.7,0,197.2-88.5,197.2-197.2v-298c33.2-3.1,65.6-11.2,96.4-24.3c39-16.5,74-40.1,104-70.1s53.7-65.1,70.1-104
		c17.1-40.4,25.7-83.3,25.7-127.4C1643.1,826.6,1609.3,744.6,1547.9,682.9z M1149.6,1670.8H325.5c-73.5,0-133.3-59.8-133.3-133.3
		V580.2h1090.6v628.8l-0.2,31.9l0.2,0v296.7C1282.8,1611.1,1223,1670.8,1149.6,1670.8z M1502,1099.9c-42.3,42.3-96.5,68.5-155,75.3
		l2.5-522.8c57.9,7.3,111.3,33.5,153.1,75.5c49.4,49.7,76.6,115.6,76.6,185.7C1579.1,984,1551.7,1050.2,1502,1099.9z"/>
	<g>
		<path d="M469.2,443.8c-17.7,0-32-14.3-32-32V59.2c0-17.7,14.3-32,32-32s32,14.3,32,32v352.6C501.2,429.5,486.9,443.8,469.2,443.8z
			"/>
	</g>
	<g>
		<path d="M737.5,443.8c-17.7,0-32-14.3-32-32V59.2c0-17.7,14.3-32,32-32s32,14.3,32,32v352.6C769.5,429.5,755.1,443.8,737.5,443.8z
			"/>
	</g>
	<g>
		<path d="M1005.7,443.8c-17.7,0-32-14.3-32-32V59.2c0-17.7,14.3-32,32-32s32,14.3,32,32v352.6
			C1037.7,429.5,1023.4,443.8,1005.7,443.8z"/>
	</g>
</g>
</svg>
