<?xml version="1.0" encoding="utf-8"?>
<!-- Generator: Adobe Illustrator 27.5.0, SVG Export Plug-In . SVG Version: 6.00 Build 0)  -->
<svg version="1.1" id="Layer_1" xmlns="http://www.w3.org/2000/svg" xmlns:xlink="http://www.w3.org/1999/xlink" x="0px" y="0px"
	 width="24px" height="24px" viewBox="0 0 24 24" style="enable-background:new 0 0 24 24;" xml:space="preserve">
<style type="text/css">
	.st0{opacity:0;}
	.st1{fill:none;stroke:#576069;stroke-width:2;stroke-linecap:round;stroke-linejoin:round;}
</style>
<g class="st0">
	<g>
		<path class="st1" d="M18,8h1c1.1,0,2.1,0.4,2.8,1.2C22.6,9.9,23,10.9,23,12s-0.4,2.1-1.2,2.8C21.1,15.6,20.1,16,19,16h-1"/>
	</g>
</g>
<g class="st0">
	<g>
		<path class="st1" d="M2,8h16v9c0,1.1-0.4,2.1-1.2,2.8C16.1,20.6,15.1,21,14,21H6c-1.1,0-2.1-0.4-2.8-1.2C2.4,19.1,2,18.1,2,17V8z"
			/>
	</g>
</g>
<g class="st0">
	<g>
		<g>
			<path class="st1" d="M6,1v3"/>
		</g>
	</g>
</g>
<g class="st0">
	<g>
		<g>
			<path class="st1" d="M10,1v3"/>
		</g>
	</g>
</g>
<g class="st0">
	<g>
		<g>
			<path class="st1" d="M14,1v3"/>
		</g>
	</g>
</g>
</svg>
