<?xml version="1.0" encoding="utf-8"?>
<!-- Generator: Adobe Illustrator 23.0.3, SVG Export Plug-In . SVG Version: 6.00 Build 0)  -->
<svg version="1.1" id="Layer_1" xmlns="http://www.w3.org/2000/svg" xmlns:xlink="http://www.w3.org/1999/xlink" x="0px" y="0px"
	 viewBox="0 0 64 64" xml:space="preserve">
<g>
	<path d="M59.51,5.98H4.49C2.01,5.98,0,7.99,0,10.47v35.88c0,2.48,2.01,4.49,4.49,4.49H31.1v3.1l-15.97,2.28
		c-0.49,0.07-0.83,0.53-0.76,1.02c0.07,0.49,0.53,0.84,1.02,0.76L32,55.64l16.62,2.37c0.04,0.01,0.09,0.01,0.13,0.01
		c0.44,0,0.83-0.32,0.89-0.77c0.07-0.49-0.27-0.95-0.76-1.02L32.9,53.94v-3.1h26.61c2.48,0,4.49-2.01,4.49-4.49V10.47
		C64,7.99,61.99,5.98,59.51,5.98z M62.2,46.35c0,1.48-1.21,2.69-2.69,2.69H4.49c-1.48,0-2.69-1.21-2.69-2.69V10.47
		c0-1.48,1.21-2.69,2.69-2.69h55.02c1.48,0,2.69,1.21,2.69,2.69V46.35z"/>
	<path d="M41.7,26.92l-12.53-8.63c-0.55-0.4-1.26-0.46-1.86-0.15c-0.61,0.31-1,0.94-1,1.63v17.29
		c0,0.7,0.38,1.32,1,1.63c0.26,0.13,0.54,0.2,0.81,0.2c0.37,0,0.73-0.11,1.03-0.33l12.57-8.66c0.47-0.34,0.75-0.9,0.75-1.48
		C42.47,27.83,42.19,27.27,41.7,26.92z M28.12,37.05V19.77l0.01-0.01l12.55,8.66L28.12,37.05z"/>
</g>
</svg>
