<?xml version="1.0" encoding="UTF-8"?>
<svg width="32px" height="20px" viewBox="0 0 32 20" version="1.1" xmlns="http://www.w3.org/2000/svg" xmlns:xlink="http://www.w3.org/1999/xlink">
    <defs>
        <polygon id="family-path" points="0 -2.03821656e-05 31.9998981 -2.03821656e-05 31.9998981 19.687093 0 19.687093"></polygon>
    </defs>
    <g stroke="none" stroke-width="1" fill="none" fill-rule="evenodd">
        <g transform="translate(-350.000000, -234.000000)">
            <g transform="translate(350.000000, 234.000000)">
                <mask id="family-mask-2" fill="white">
                    <use xlink:href="#family-path"></use>
                </mask>
                <path d="M2.64957962,16.848693 C2.64957962,14.3930497 4.64764331,12.3951898 7.1030828,12.3951898 C9.55872611,12.3951898 11.556586,14.3930497 11.556586,16.848693 C11.556586,17.5543236 11.3880255,18.2485401 11.0698599,18.8718268 L9.94129936,18.8718268 L9.94129936,15.6335083 C9.94129936,15.4084892 9.75867516,15.225865 9.53365605,15.225865 C9.30843312,15.225865 9.12601274,15.4084892 9.12601274,15.6335083 L9.12601274,18.8718268 L5.08035669,18.8718268 L5.08035669,15.6335083 C5.08035669,15.4084892 4.89752866,15.225865 4.67271338,15.225865 C4.44728662,15.225865 4.26507006,15.4084892 4.26507006,15.6335083 L4.26507006,18.8718268 L3.13650955,18.8718268 C2.81834395,18.2485401 2.64957962,17.5543236 2.64957962,16.848693 M5.08035669,9.55697325 C5.08035669,8.44145732 5.98756688,7.53404331 7.1030828,7.53404331 C8.2183949,7.53404331 9.12601274,8.44145732 9.12601274,9.55697325 C9.12601274,10.6722854 8.2183949,11.5799032 7.1030828,11.5799032 C5.98756688,11.5799032 5.08035669,10.6722854 5.08035669,9.55697325 M11.5463949,10.1297121 C11.5463949,7.67406879 13.5444586,5.67641274 15.9998981,5.67641274 C18.4557452,5.67641274 20.4534013,7.67406879 20.4534013,10.1297121 C20.4534013,10.8182217 20.2940127,11.4963363 19.9907261,12.1078013 C19.6105987,11.996107 19.2263949,11.8999032 18.8383185,11.8210242 L18.8383185,8.91452739 C18.8383185,8.68950828 18.6554904,8.50688408 18.4306752,8.50688408 C18.2052484,8.50688408 18.0230318,8.68950828 18.0230318,8.91452739 L18.0230318,11.6809987 C17.3575541,11.5862217 16.6835159,11.5342471 15.9998981,11.5342471 C15.3166879,11.5342471 14.6424459,11.5862217 13.977172,11.6809987 L13.977172,8.91452739 C13.977172,8.68950828 13.7945478,8.50688408 13.5695287,8.50688408 C13.3443057,8.50688408 13.1618854,8.68950828 13.1618854,8.91452739 L13.1618854,11.8210242 C12.7736051,11.8999032 12.3894013,11.996107 12.0090701,12.1078013 C11.7059873,11.4963363 11.5463949,10.8182217 11.5463949,10.1297121 M13.9812484,2.91789045 C13.9822675,2.89689682 13.9830828,2.87569936 13.9808408,2.85389045 C13.9802293,2.8477758 13.9781911,2.84227261 13.977172,2.83615796 C13.9781911,1.72166115 14.8851975,0.815266242 15.9998981,0.815266242 C17.1148025,0.815266242 18.0216051,1.72145732 18.022828,2.83595414 C18.0218089,2.84206879 18.0195669,2.8477758 18.0189554,2.85389045 C18.0167134,2.87631083 18.0173248,2.89832357 18.0187516,2.92013248 C17.9751338,3.99732994 17.0878981,4.86112611 15.9998981,4.86112611 C14.9114904,4.86112611 14.0236433,3.99631083 13.9812484,2.91789045 M15.9998981,12.3495338 C17.7313631,12.3495338 19.4071847,12.6762599 20.9910828,13.3164637 C20.1446115,14.2515975 19.6281274,15.4908331 19.6281274,16.848693 C19.6281274,17.5455592 19.7663185,18.2340688 20.0312866,18.8718268 L11.9687134,18.8718268 C12.2334777,18.233865 12.3718726,17.5455592 12.3718726,16.848693 C12.3718726,15.4908331 11.8553885,14.2513936 11.0089172,13.3162599 C12.5930191,12.6762599 14.2688408,12.3495338 15.9998981,12.3495338 M29.3502166,16.848693 C29.3502166,17.5543236 29.1816561,18.2485401 28.8634904,18.8718268 L27.7351338,18.8718268 L27.7351338,15.6335083 C27.7351338,15.4084892 27.5525096,15.225865 27.3274904,15.225865 C27.1022675,15.225865 26.9198471,15.4084892 26.9198471,15.6335083 L26.9198471,18.8718268 L22.8739873,18.8718268 L22.8739873,15.6335083 C22.8739873,15.4084892 22.6913631,15.225865 22.4663439,15.225865 C22.241121,15.225865 22.0587006,15.4084892 22.0587006,15.6335083 L22.0587006,18.8718268 L20.9301401,18.8718268 C20.6119745,18.2485401 20.443414,17.5543236 20.443414,16.848693 C20.443414,14.3930497 22.4412739,12.3951898 24.8967134,12.3951898 C27.3525605,12.3951898 29.3502166,14.3930497 29.3502166,16.848693 M22.8739873,9.55697325 C22.8739873,8.44145732 23.7814013,7.53404331 24.8967134,7.53404331 C26.0122293,7.53404331 26.9198471,8.44145732 26.9198471,9.55697325 C26.9198471,10.6722854 26.0122293,11.5799032 24.8967134,11.5799032 C23.7814013,11.5799032 22.8739873,10.6722854 22.8739873,9.55697325 M31.5922548,18.8718268 L29.7623439,18.8718268 C30.0273121,18.233865 30.1655032,17.5455592 30.1655032,16.848693 C30.1655032,14.5251261 28.6529427,12.5494828 26.5613248,11.850986 C27.2710318,11.3345019 27.7351338,10.4998522 27.7351338,9.55697325 C27.7351338,7.99203057 26.4618599,6.71875669 24.8967134,6.71875669 C23.3319745,6.71875669 22.0587006,7.99203057 22.0587006,9.55697325 C22.0587006,10.4998522 22.5225987,11.3345019 23.2323057,11.850986 C22.6516178,12.0450242 22.1157707,12.3373045 21.6443312,12.7084637 C21.3559236,12.5829096 21.0648662,12.4677503 20.7707516,12.3623745 C21.096051,11.666935 21.2686879,10.9040306 21.2686879,10.1297121 C21.2686879,7.80614522 19.7563312,5.83050191 17.6645096,5.1320051 C18.2419363,4.71172484 18.6550828,4.08089682 18.7894013,3.35182675 C22.6734268,3.83223439 26.3734013,5.32196688 29.5124586,7.6797758 C29.5858344,7.73460382 29.6718471,7.76130446 29.7570446,7.76130446 C29.8809682,7.76130446 30.0030573,7.7052535 30.0831592,7.59845096 C30.2184968,7.41847643 30.1822166,7.16288408 30.0020382,7.0275465 C26.7304968,4.57088408 22.8715414,3.02326624 18.8214013,2.53450191 C18.6691465,1.11182675 17.4623185,-2.03821656e-05 15.9998981,-2.03821656e-05 C14.5376815,-2.03821656e-05 13.3308535,1.11182675 13.1785987,2.53450191 C9.12805096,3.02326624 5.2686879,4.5710879 1.9971465,7.02836178 C1.81717197,7.16349554 1.78089172,7.4190879 1.91602548,7.59906242 C1.99633121,7.70586497 2.1186242,7.76191592 2.24234395,7.76191592 C2.3275414,7.76191592 2.41355414,7.73521529 2.48672611,7.68018344 C5.62619108,5.3221707 9.32636943,3.83223439 13.2105987,3.35182675 C13.3449172,4.08089682 13.7580637,4.71172484 14.3354904,5.1320051 C12.2438726,5.83050191 10.7311083,7.80614522 10.7311083,10.1297121 C10.7311083,10.9040306 10.903949,11.6667312 11.2292484,12.3623745 C10.9351338,12.4677503 10.6438726,12.5829096 10.3556688,12.7082599 C9.8842293,12.3371006 9.34838217,12.0450242 8.76769427,11.850986 C9.47740127,11.3345019 9.94129936,10.4998522 9.94129936,9.55697325 C9.94129936,7.99203057 8.66802548,6.71875669 7.1030828,6.71875669 C5.53814013,6.71875669 4.26507006,7.99203057 4.26507006,9.55697325 C4.26507006,10.4998522 4.72896815,11.3345019 5.43867516,11.850986 C3.34705732,12.5494828 1.83429299,14.5251261 1.83429299,16.848693 C1.83429299,17.5455592 1.9726879,18.2340688 2.23765605,18.8718268 L0.407541401,18.8718268 C0.182522293,18.8718268 -0.000101910828,19.0542471 -0.000101910828,19.2794701 C-0.000101910828,19.5044892 0.182522293,19.6871134 0.407541401,19.6871134 L31.5922548,19.6871134 C31.8174777,19.6871134 31.9998981,19.5044892 31.9998981,19.2794701 C31.9998981,19.0542471 31.8174777,18.8718268 31.5922548,18.8718268" fill="#00A9E6" mask="url(#family-mask-2)"></path>
            </g>
        </g>
    </g>
</svg>