<?xml version="1.0" encoding="utf-8"?>
<!-- Generator: Adobe Illustrator 23.0.6, SVG Export Plug-In . SVG Version: 6.00 Build 0)  -->
<svg version="1.1" id="Layer_1" xmlns="http://www.w3.org/2000/svg" xmlns:xlink="http://www.w3.org/1999/xlink" x="0px" y="0px"
	 viewBox="0 0 64 64" style="enable-background:new 0 0 64 64;" xml:space="preserve">
<g>
	<path d="M58.07,35.56h-3.56V14.22c0-0.31-0.12-0.62-0.35-0.84L41.13,0.35C40.91,0.12,40.61,0,40.3,0H9.48
		C6.87,0,4.74,2.13,4.74,4.74v54.52c0,2.61,2.13,4.74,4.74,4.74h40.3c2.61,0,4.74-2.13,4.74-4.74v-2.37h3.56
		c0.66,0,1.19-0.53,1.19-1.19V36.74C59.26,36.09,58.73,35.56,58.07,35.56z M51.66,14.22h-8.99c-1.31,0-2.37-1.06-2.37-2.37V2.86
		L51.66,14.22z M52.15,59.26c0,1.31-1.06,2.37-2.37,2.37H9.48c-1.31,0-2.37-1.06-2.37-2.37V4.74c0-1.31,1.06-2.37,2.37-2.37h28.44
		v9.48c0,2.61,2.13,4.74,4.74,4.74h9.48v18.96H13.04c-0.65,0-1.19,0.53-1.19,1.19V55.7c0,0.66,0.53,1.19,1.19,1.19h39.11V59.26z
		 M56.89,54.52H14.22V37.93h42.67V54.52z"/>
	<path d="M15.41,9.48h14.22c0.65,0,1.19-0.53,1.19-1.19s-0.53-1.19-1.19-1.19H15.41c-0.65,0-1.19,0.53-1.19,1.19
		S14.75,9.48,15.41,9.48z"/>
	<path d="M15.41,14.22h14.22c0.65,0,1.19-0.53,1.19-1.19c0-0.65-0.53-1.19-1.19-1.19H15.41c-0.65,0-1.19,0.53-1.19,1.19
		C14.22,13.69,14.75,14.22,15.41,14.22z"/>
	<path d="M15.41,18.97h14.22c0.65,0,1.19-0.53,1.19-1.19s-0.53-1.19-1.19-1.19H15.41c-0.65,0-1.19,0.53-1.19,1.19
		S14.75,18.97,15.41,18.97z"/>
	<path d="M15.41,23.71h9.48c0.65,0,1.19-0.53,1.19-1.19c0-0.65-0.53-1.19-1.19-1.19h-9.48c-0.65,0-1.19,0.53-1.19,1.19
		C14.22,23.18,14.75,23.71,15.41,23.71z"/>
	<path d="M24.89,40.3h-2.37c-0.65,0-1.19,0.53-1.19,1.19v9.48c0,0.66,0.53,1.19,1.19,1.19h2.37c1.96,0,3.56-1.59,3.56-3.56v-4.74
		C28.44,41.89,26.85,40.3,24.89,40.3z M24.89,49.78H23.7v-7.11h1.19c0.65,0,1.19,0.53,1.19,1.19v4.74
		C26.07,49.25,25.54,49.78,24.89,49.78z"/>
	<path d="M34.37,40.3c-1.96,0-3.56,1.59-3.56,3.56v4.74c0,1.96,1.59,3.56,3.56,3.56c1.96,0,3.56-1.59,3.56-3.56v-4.74
		C37.93,41.89,36.33,40.3,34.37,40.3z M34.37,49.78c-0.65,0-1.19-0.53-1.19-1.19v-4.74c0-0.65,0.53-1.19,1.19-1.19
		c0.65,0,1.19,0.53,1.19,1.19v4.74C35.56,49.25,35.02,49.78,34.37,49.78z"/>
	<path d="M43.85,42.67c0.65,0,1.19,0.53,1.19,1.19c0,0.66,0.53,1.19,1.19,1.19c0.66,0,1.19-0.53,1.19-1.19
		c0-1.96-1.59-3.56-3.56-3.56s-3.56,1.59-3.56,3.56v4.74c0,1.96,1.59,3.56,3.56,3.56s3.56-1.59,3.56-3.56
		c0-0.66-0.53-1.19-1.19-1.19c-0.66,0-1.19,0.53-1.19,1.19c0,0.65-0.53,1.19-1.19,1.19s-1.19-0.53-1.19-1.19v-4.74
		C42.67,43.2,43.2,42.67,43.85,42.67z"/>
</g>
</svg>
