<?xml version="1.0" encoding="utf-8"?>
<!-- Generator: Adobe Illustrator 23.0.6, SVG Export Plug-In . SVG Version: 6.00 Build 0)  -->
<svg version="1.1" id="Layer_1" xmlns="http://www.w3.org/2000/svg" xmlns:xlink="http://www.w3.org/1999/xlink" x="0px" y="0px"
	 viewBox="0 0 64 64" style="enable-background:new 0 0 64 64;" xml:space="preserve">
<g>
	<path d="M56.89,35.56H55.7V14.22c0-0.31-0.12-0.62-0.35-0.84L42.32,0.35C42.1,0.12,41.8,0,41.48,0H10.67
		C8.05,0,5.93,2.13,5.93,4.74v54.52c0,2.61,2.13,4.74,4.74,4.74h40.3c2.61,0,4.74-2.13,4.74-4.74v-2.37h1.19
		c0.66,0,1.19-0.53,1.19-1.19V36.74C58.07,36.09,57.54,35.56,56.89,35.56z M52.84,14.22h-8.99c-1.31,0-2.37-1.06-2.37-2.37V2.86
		L52.84,14.22z M53.33,59.26c0,1.31-1.06,2.37-2.37,2.37h-40.3c-1.31,0-2.37-1.06-2.37-2.37V4.74c0-1.31,1.06-2.37,2.37-2.37h28.44
		v9.48c0,2.61,2.13,4.74,4.74,4.74h9.48v18.96H14.22c-0.65,0-1.19,0.53-1.19,1.19V55.7c0,0.66,0.53,1.19,1.19,1.19h39.11V59.26z
		 M55.7,54.52h-40.3V37.93h40.3V54.52z"/>
	<path d="M13.77,23.61c0.14,0.06,0.3,0.09,0.45,0.09h18.96c0.66,0,1.19-0.53,1.19-1.19V8.3c0-0.65-0.53-1.19-1.19-1.19H14.22
		c-0.65,0-1.19,0.53-1.19,1.19v14.22c0,0.15,0.03,0.31,0.09,0.45C13.25,23.26,13.48,23.49,13.77,23.61z M17.08,21.33l3.06-3.06
		l1.53,1.53c0.46,0.46,1.21,0.46,1.68,0l3.9-3.9L32,20.64v0.69H17.08z M32,9.48v7.81l-3.9-3.9c-0.46-0.46-1.21-0.46-1.68,0l-3.9,3.9
		l-1.53-1.53c-0.46-0.46-1.21-0.46-1.68,0l-3.9,3.9V9.48H32z"/>
	<path d="M28.44,40.3c-0.65,0-1.19,0.53-1.19,1.19v7.11c0,0.65-0.53,1.19-1.19,1.19s-1.19-0.53-1.19-1.19
		c0-0.66-0.53-1.19-1.19-1.19c-0.65,0-1.19,0.53-1.19,1.19c0,1.96,1.59,3.56,3.56,3.56s3.56-1.59,3.56-3.56v-7.11
		C29.63,40.83,29.1,40.3,28.44,40.3z"/>
	<path d="M35.56,40.3h-2.37c-0.65,0-1.19,0.53-1.19,1.19v9.48c0,0.66,0.53,1.19,1.19,1.19c0.66,0,1.19-0.53,1.19-1.19v-3.56h1.19
		c1.96,0,3.56-1.59,3.56-3.56S37.52,40.3,35.56,40.3z M35.56,45.04h-1.19v-2.37h1.19c0.65,0,1.19,0.53,1.19,1.19
		S36.21,45.04,35.56,45.04z"/>
	<path d="M45.04,42.67h2.37c0.66,0,1.19-0.53,1.19-1.19c0-0.66-0.53-1.19-1.19-1.19h-2.37c-1.96,0-3.56,1.59-3.56,3.56v4.74
		c0,1.96,1.59,3.56,3.56,3.56s3.56-1.59,3.56-3.56v-2.37c0-0.66-0.53-1.19-1.19-1.19h-1.19c-0.66,0-1.19,0.53-1.19,1.19
		c0,0.66,0.53,1.19,1.19,1.19v1.19c0,0.65-0.53,1.19-1.19,1.19s-1.19-0.53-1.19-1.19v-4.74C43.85,43.2,44.38,42.67,45.04,42.67z"/>
</g>
</svg>
