<?xml version="1.0" encoding="utf-8"?>
<!-- Generator: Adobe Illustrator 23.0.6, SVG Export Plug-In . SVG Version: 6.00 Build 0)  -->
<svg version="1.1" id="Layer_1" xmlns="http://www.w3.org/2000/svg" xmlns:xlink="http://www.w3.org/1999/xlink" x="0px" y="0px"
	 viewBox="0 0 64 64" style="enable-background:new 0 0 64 64;" xml:space="preserve">
<g>
	<path d="M58.07,35.56h-3.56V14.22c0-0.31-0.12-0.62-0.35-0.84L41.13,0.35C40.91,0.12,40.61,0,40.3,0H9.48
		C6.87,0,4.74,2.13,4.74,4.74v54.52c0,2.61,2.13,4.74,4.74,4.74h40.3c2.61,0,4.74-2.13,4.74-4.74v-2.37h3.56
		c0.66,0,1.19-0.53,1.19-1.19V36.74C59.26,36.09,58.73,35.56,58.07,35.56z M51.66,14.22h-8.99c-1.31,0-2.37-1.06-2.37-2.37V2.86
		L51.66,14.22z M52.15,59.26c0,1.31-1.06,2.37-2.37,2.37H9.48c-1.31,0-2.37-1.06-2.37-2.37V4.74c0-1.31,1.06-2.37,2.37-2.37h28.44
		v9.48c0,2.61,2.13,4.74,4.74,4.74h9.48v18.96H13.04c-0.65,0-1.19,0.53-1.19,1.19V55.7c0,0.66,0.53,1.19,1.19,1.19h39.11V59.26z
		 M56.89,54.52H14.22V37.93h42.67V54.52z"/>
	<path d="M22.52,28.44c5.88,0,10.67-4.79,10.67-10.67S28.4,7.11,22.52,7.11S11.85,11.9,11.85,17.78S16.64,28.44,22.52,28.44z
		 M30.72,16.59H23.7V9.58C27.33,10.1,30.2,12.97,30.72,16.59z M21.33,9.58v8.2c0,0.65,0.53,1.19,1.19,1.19h8.2
		c-0.58,4.01-4.03,7.11-8.2,7.11c-4.57,0-8.3-3.72-8.3-8.3C14.22,13.61,17.32,10.15,21.33,9.58z"/>
	<path d="M24.89,40.3h-2.37c-0.65,0-1.19,0.53-1.19,1.19v9.48c0,0.66,0.53,1.19,1.19,1.19s1.19-0.53,1.19-1.19v-3.56h1.19
		c1.96,0,3.56-1.59,3.56-3.56S26.85,40.3,24.89,40.3z M24.89,45.04H23.7v-2.37h1.19c0.65,0,1.19,0.53,1.19,1.19
		S25.54,45.04,24.89,45.04z"/>
	<path d="M34.37,40.3H32c-0.65,0-1.19,0.53-1.19,1.19v9.48c0,0.66,0.53,1.19,1.19,1.19s1.19-0.53,1.19-1.19v-3.56h1.19
		c1.96,0,3.56-1.59,3.56-3.56S36.33,40.3,34.37,40.3z M34.37,45.04h-1.19v-2.37h1.19c0.65,0,1.19,0.53,1.19,1.19
		S35.02,45.04,34.37,45.04z"/>
	<path d="M46.22,40.3h-4.74c-0.66,0-1.19,0.53-1.19,1.19c0,0.66,0.53,1.19,1.19,1.19h1.19v8.3c0,0.66,0.53,1.19,1.19,1.19
		c0.66,0,1.19-0.53,1.19-1.19v-8.3h1.19c0.66,0,1.19-0.53,1.19-1.19C47.41,40.83,46.88,40.3,46.22,40.3z"/>
</g>
</svg>
