<?xml version="1.0" encoding="UTF-8"?>
<svg width="209px" height="285px" viewBox="0 0 209 285" version="1.1" xmlns="http://www.w3.org/2000/svg" xmlns:xlink="http://www.w3.org/1999/xlink">
    <!-- Generator: Sketch 53.2 (72643) - https://sketchapp.com -->
    <title>Group 12 Copy 4</title>
    <desc>Created with Sketch.</desc>
    <defs>
        <polygon id="path-1" points="0.00945025641 0.518934316 203.773982 0.518934316 203.773982 284.999045 0.00945025641 284.999045"></polygon>
        <polygon id="path-3" points="0 0.42 150.864991 0.42 150.864991 167.548959 0 167.548959"></polygon>
        <polygon id="path-5" points="0.499956639 0.180183333 84.8600343 0.180183333 84.8600343 37.96485 0.499956639 37.96485"></polygon>
    </defs>
    <g id="Hi-Fi-Explorations" stroke="none" stroke-width="1" fill="none" fill-rule="evenodd">
        <g id="Artboard-Copy" transform="translate(-562.000000, -566.000000)">
            <g id="Group-12-Copy-4" transform="translate(562.000000, 566.000000)">
                <path d="M108.270347,168 L93,179.028819 C124.411107,204.859307 173.675211,226 209,226 L209,207.823462 C179.58703,207.823462 136.514295,189.675578 108.270347,168" id="Fill-1" fill="#99CA52"></path>
                <g id="Group-5">
                    <mask id="mask-2" fill="white">
                        <use xlink:href="#path-1"></use>
                    </mask>
                    <g id="Clip-4"></g>
                    <path d="M104.148126,224.150017 C69.4656848,202.351592 45.6793894,174.329139 37.1647084,145.176491 C27.5002462,112.098408 31.9355665,77.4316857 48.7412725,54.7068197 C61.4329668,37.5469672 80.5917867,28.4735757 104.148126,28.4735757 C127.707615,28.4735757 146.866435,37.5469672 159.558129,54.7068197 C176.360685,77.4316857 180.799156,112.098408 171.134693,145.176491 C162.616862,174.329139 138.833717,202.351592 104.148126,224.150017 M197.664713,153.097403 C209.748441,111.725922 203.637275,67.613321 181.718981,37.9703921 C163.596539,13.4690516 136.770411,0.517979223 104.148126,0.517979223 C71.5258407,0.517979223 44.7028629,13.4690516 26.5804212,37.9703921 C4.65897641,67.613321 -1.44903932,111.725922 10.6346885,153.097403 C20.5763583,187.124212 45.2793285,216.627061 76.2163179,239.055848 C50.6250236,250.516974 23.58784,257.043448 0.00945025641,257.043448 L0.00945025641,284.999045 C75.2712923,284.999045 174.955747,230.829306 197.664713,153.097403" id="Fill-3" fill="#129FDA" mask="url(#mask-2)"></path>
                </g>
                <g id="Group-8" transform="translate(0.000000, 59.000000)">
                    <mask id="mask-4" fill="white">
                        <use xlink:href="#path-3"></use>
                    </mask>
                    <g id="Clip-7"></g>
                    <path d="M143.616935,22.9150226 C135.678053,8.40823529 121.798446,0.42 104.532722,0.42 C87.2701591,0.42 73.3873911,8.40823529 65.4485092,22.9150226 C53.146562,45.3973756 57.8542462,77.7747511 69.5143802,96.0856109 C71.721206,99.5539367 74.3927931,103.02543 77.4406156,106.465249 C82.0313191,103.719095 87.4155946,100.063891 92.0568844,95.7371946 C89.1892755,92.6077828 86.7042253,89.4720362 84.7281993,86.3679638 C76.0463317,72.7353846 72.5906575,47.4752036 81.2756868,31.6064253 C86.1003518,22.7883258 93.7072613,18.499638 104.532722,18.499638 C115.358183,18.499638 122.965092,22.7883258 127.792919,31.6064253 C136.477948,47.4752036 133.015951,72.7353846 124.337245,86.3679638 C105.563417,115.850317 39.3301884,149.466154 -0.000632328308,149.466154 L-0.000632328308,167.548959 C41.4611348,167.548959 115.478325,133.904615 139.551064,96.0856109 C151.211198,77.7747511 155.922044,45.3973756 143.616935,22.9150226" id="Fill-6" fill="#99CA52" mask="url(#mask-4)"></path>
                </g>
                <g id="Group-11" transform="translate(123.000000, 247.000000)">
                    <mask id="mask-6" fill="white">
                        <use xlink:href="#path-5"></use>
                    </mask>
                    <g id="Clip-10"></g>
                    <path d="M84.8609935,10.1646833 C67.4509781,10.0221833 48.250401,6.50085 29.1265623,0.180183333 C19.3552111,8.26151667 9.00512485,14.6550167 0.499956639,19.2656833 C28.6821193,31.14385 58.2327827,37.7906833 84.8609935,37.96485 L84.8609935,10.1646833 Z" id="Fill-9" fill="#129FDA" mask="url(#mask-6)"></path>
                </g>
            </g>
        </g>
    </g>
</svg>