<svg version="1.1" xmlns="http://www.w3.org/2000/svg" xmlns:xlink="http://www.w3.org/1999/xlink" x="0px" y="0px"
	 viewBox="0 0 64 64" style="enable-background:new 0 0 64 64;" xml:space="preserve">
<path class="fill" d="M32,0C14.33,0,0,14.33,0,32c0,17.67,14.33,32,32,32s32-14.33,32-32C64,14.33,49.67,0,32,0z
	 M23.72,49.1h-8.85V24.12h8.85V49.1z M19.28,20.45h-0.06c-3.07,0-5.05-2.12-5.05-4.78c0-2.71,2.05-4.77,5.17-4.77
	c3.13,0,5.06,2.06,5.11,4.77C24.45,18.32,22.47,20.45,19.28,20.45z M53.84,49.1h-8.82c0,0,0-14.9,0-15.3c0-2.3-1.73-4.17-4.04-4.17
	c-2.31,0-4.04,1.87-4.04,4.17c0,0.35,0,15.3,0,15.3h-8.82V24.11h8.82v4.19c1.14-1.78,2.96-4.17,7.63-4.17
	c5.69,0,9.27,3.51,9.27,11.5V49.1z"/>
</svg>
