<?xml version="1.0" encoding="UTF-8"?>
<svg width="26px" height="20px" viewBox="0 0 26 20" version="1.1" xmlns="http://www.w3.org/2000/svg" xmlns:xlink="http://www.w3.org/1999/xlink">
    <defs>
        <polygon id="path-1" points="0 0.178824286 2.65547286 0.178824286 2.65547286 0.921681429 0 0.921681429"></polygon>
    </defs>
    <g id="Hi-Fi-Explorations" stroke="none" stroke-width="1" fill="none" fill-rule="evenodd">
        <g id="tablet-menu" transform="translate(-350.000000, -168.000000)">
            <g id="Group-18" transform="translate(350.000000, 168.000000)">
                <path d="M20.82392,18.3857143 L20.82392,8.58278571 C20.82392,8.42548571 20.7249343,8.28527143 20.5765486,8.23271429 C19.7248629,7.9313 19.1524914,7.12288571 19.1524914,6.22142857 C19.1524914,5.50865714 19.5103629,4.85401429 20.0810629,4.46215714 L20.0810629,6.29441429 C20.0810629,6.49925714 20.2474629,6.66584286 20.4524914,6.66584286 L22.12392,6.66584286 C22.3289486,6.66584286 22.4953486,6.49925714 22.4953486,6.29441429 L22.4953486,4.46215714 C23.0662343,4.85401429 23.42392,5.50865714 23.42392,6.22142857 C23.42392,7.12288571 22.8517343,7.9313 22.0000486,8.23271429 C21.8516629,8.28527143 21.7524914,8.42548571 21.7524914,8.58278571 L21.7524914,18.3857143 L20.82392,18.3857143 Z M25.4881343,0 L8.26963429,0 C8.06442,0 7.89820571,0.1664 7.89820571,0.371428571 C7.89820571,0.395942857 7.90099143,0.419714286 7.90544857,0.442928571 C7.90099143,0.465957143 7.89820571,0.489728571 7.89820571,0.514242857 L7.89820571,2.42654286 C7.89820571,2.63194286 8.06442,2.79797143 8.26963429,2.79797143 C8.47466286,2.79797143 8.64106286,2.63194286 8.64106286,2.42654286 L8.64106286,0.742857143 L25.1167057,0.742857143 L25.1167057,18.3857143 L22.4953486,18.3857143 L22.4953486,8.83238571 C23.5052629,8.36531429 24.1667771,7.34722857 24.1667771,6.22142857 C24.1667771,5.00592857 23.3956914,3.91634286 22.2479771,3.50981429 C22.1341343,3.46951429 22.00822,3.48697143 21.9096057,3.55661429 C21.8109914,3.62625714 21.7524914,3.73935714 21.7524914,3.86007143 L21.7524914,5.92298571 L20.82392,5.92298571 L20.82392,3.86007143 C20.82392,3.73935714 20.76542,3.62625714 20.6668057,3.55661429 C20.5683771,3.48697143 20.4422771,3.46951429 20.32862,3.50981429 C19.18072,3.91634286 18.4096343,5.00592857 18.4096343,6.22142857 C18.4096343,7.34722857 19.0713343,8.36531429 20.0810629,8.83238571 L20.0810629,18.3857143 L8.64106286,18.3857143 L8.64106286,16.8444714 C8.64106286,16.6396286 8.47466286,16.4730429 8.26963429,16.4730429 C8.06442,16.4730429 7.89820571,16.6396286 7.89820571,16.8444714 L7.89820571,18.7571429 C7.89820571,18.9621714 8.06442,19.1285714 8.26963429,19.1285714 L20.4524914,19.1285714 L22.12392,19.1285714 L25.4881343,19.1285714 C25.6933486,19.1285714 25.8595629,18.9621714 25.8595629,18.7571429 L25.8595629,0.371428571 C25.8595629,0.1664 25.6933486,0 25.4881343,0 L25.4881343,0 Z" id="Fill-1" fill="#00A9E6"></path>
                <path d="M6.77565571,13.9019029 L9.76361286,13.9019029 C9.59684143,14.5725171 8.99122714,15.0715314 8.26954143,15.0715314 C7.54822714,15.0715314 6.94261286,14.5725171 6.77565571,13.9019029 L6.77565571,13.9019029 Z M4.81599857,7.79264571 C4.81599857,5.88851714 6.36522714,4.33891714 8.26954143,4.33891714 C10.1740414,4.33891714 11.7234557,5.88851714 11.7234557,7.79264571 C11.7234557,9.01836 11.06157,10.1632886 9.99612714,10.7804171 C9.88135571,10.8469029 9.81078429,10.9694743 9.81078429,11.1018886 L9.81078429,11.2463743 L8.64097,11.2463743 L8.64097,9.85908857 L10.4448129,8.05543143 C10.5900414,7.91020286 10.5900414,7.67527429 10.4448129,7.53004571 C10.2999557,7.38500286 10.06447,7.38500286 9.91961286,7.53004571 L8.26954143,9.18011714 L6.61965571,7.53004571 C6.47479857,7.38500286 6.23931286,7.38500286 6.09445571,7.53004571 C5.94941286,7.67527429 5.94941286,7.91020286 6.09445571,8.05543143 L7.89811286,9.85908857 L7.89811286,11.2463743 L6.72848429,11.2463743 L6.72848429,11.1018886 C6.72848429,10.9694743 6.65791286,10.8469029 6.54332714,10.7804171 C5.47788429,10.1632886 4.81599857,9.01836 4.81599857,7.79264571 L4.81599857,7.79264571 Z M6.72848429,13.1590457 L9.81078429,13.1590457 L9.81078429,11.9892314 L6.72848429,11.9892314 L6.72848429,13.1590457 Z M10.5536414,13.5304743 L10.5536414,11.6178029 L10.5536414,11.3095171 C11.7386843,10.5382457 12.4663129,9.21001714 12.4663129,7.79264571 C12.4663129,5.47883143 10.5835414,3.59606 8.26954143,3.59606 C5.95554143,3.59606 4.07314143,5.47883143 4.07314143,7.79264571 C4.07314143,9.21001714 4.80077,10.5382457 5.98562714,11.3095171 L5.98562714,11.6178029 L5.98562714,13.5304743 C5.98562714,14.7898029 7.01021286,15.8143886 8.26954143,15.8143886 C9.52905571,15.8143886 10.5536414,14.7898029 10.5536414,13.5304743 L10.5536414,13.5304743 Z" id="Fill-3" fill="#00A9E6"></path>
                <path d="M15.9200786,7.79311 L14.0074071,7.79311 C13.8021929,7.79311 13.6359786,7.95932429 13.6359786,8.16453857 C13.6359786,8.36956714 13.8021929,8.53596714 14.0074071,8.53596714 L15.9200786,8.53596714 C16.1251071,8.53596714 16.2915071,8.36956714 16.2915071,8.16453857 C16.2915071,7.95932429 16.1251071,7.79311 15.9200786,7.79311" id="Fill-5" fill="#00A9E6"></path>
                <g id="Group-9" transform="translate(0.000000, 7.614286)">
                    <mask id="mask-2" fill="white">
                        <use xlink:href="#path-1"></use>
                    </mask>
                    <g id="Clip-8"></g>
                    <path d="M2.28404429,0.178824286 L0.371372857,0.178824286 C0.166344286,0.178824286 -5.57142857e-05,0.345038571 -5.57142857e-05,0.550252857 C-5.57142857e-05,0.755281429 0.166344286,0.921681429 0.371372857,0.921681429 L2.28404429,0.921681429 C2.48907286,0.921681429 2.65547286,0.755281429 2.65547286,0.550252857 C2.65547286,0.345038571 2.48907286,0.178824286 2.28404429,0.178824286" id="Fill-7" fill="#00A9E6" mask="url(#mask-2)"></path>
                </g>
                <path d="M13.7447329,2.16399857 L12.3923614,3.51655571 C12.2473186,3.66141286 12.2473186,3.89671286 12.3923614,4.04175571 C12.4649757,4.11437 12.5600614,4.15058429 12.6549614,4.15058429 C12.7500471,4.15058429 12.8451329,4.11437 12.9175614,4.04175571 L14.2699329,2.68919857 C14.4149757,2.54434143 14.4149757,2.30904143 14.2699329,2.16399857 C14.12489,2.01895571 13.88959,2.01895571 13.7447329,2.16399857" id="Fill-10" fill="#00A9E6"></path>
                <path d="M4.14690714,3.51659286 L2.79453571,2.16403571 C2.64949286,2.01899286 2.41419286,2.01899286 2.26933571,2.16403571 C2.12410714,2.30907857 2.12410714,2.54437857 2.26933571,2.68923571 L3.62170714,4.04179286 C3.69413571,4.11440714 3.78922143,4.15062143 3.88430714,4.15062143 C3.97939286,4.15062143 4.07447857,4.11440714 4.14690714,4.04179286 C4.29195,3.89675 4.29195,3.66145 4.14690714,3.51659286" id="Fill-12" fill="#00A9E6"></path>
                <path d="M14.0141486,14.1861014 L13.2571771,14.1861014 L12.8786914,13.53053 L13.2571771,12.8747729 L14.0141486,12.8747729 L14.39282,13.53053 L14.0141486,14.1861014 Z M14.2286486,12.1319157 L13.0426771,12.1319157 C12.9100771,12.1319157 12.78732,12.2026729 12.72102,12.31763 L12.1280343,13.3448157 C12.0617343,13.4595871 12.0617343,13.6014729 12.1280343,13.7162443 L12.72102,14.7432443 C12.78732,14.8582014 12.9100771,14.9289586 13.0426771,14.9289586 L14.2286486,14.9289586 C14.3612486,14.9289586 14.48382,14.8582014 14.5503057,14.7432443 L15.1432914,13.7162443 C15.2095914,13.6014729 15.2095914,13.4595871 15.1432914,13.3448157 L14.5503057,12.31763 C14.4840057,12.2026729 14.3612486,12.1319157 14.2286486,12.1319157 L14.2286486,12.1319157 Z" id="Fill-14" fill="#00A9E6"></path>
                <path d="M17.2873629,12.8748657 L18.0443343,12.8748657 L18.4230057,13.5304371 L18.0443343,14.1861943 L17.2873629,14.1861943 L16.9088771,13.5304371 L17.2873629,12.8748657 Z M16.1584057,13.7161514 L16.7512057,14.7433371 C16.8176914,14.8582943 16.9402629,14.9290514 17.0730486,14.9290514 L18.2588343,14.9290514 C18.3914343,14.9290514 18.5140057,14.8582943 18.5804914,14.7433371 L19.1734771,13.7161514 C19.2399629,13.60138 19.2399629,13.4594943 19.1734771,13.3447229 L18.5804914,12.3177229 C18.5141914,12.2027657 18.3914343,12.1320086 18.2588343,12.1320086 L17.0730486,12.1320086 C16.9402629,12.1320086 16.8176914,12.2027657 16.7512057,12.3177229 L16.1584057,13.3447229 C16.09192,13.4594943 16.09192,13.60138 16.1584057,13.7161514 L16.1584057,13.7161514 Z" id="Fill-16" fill="#00A9E6"></path>
            </g>
        </g>
    </g>
</svg>