<?xml version="1.0" encoding="utf-8"?>
<!-- Generator: Adobe Illustrator 23.0.6, SVG Export Plug-In . SVG Version: 6.00 Build 0)  -->
<svg version="1.1" id="Layer_1" xmlns="http://www.w3.org/2000/svg" xmlns:xlink="http://www.w3.org/1999/xlink" x="0px" y="0px"
	 viewBox="0 0 64 64" style="enable-background:new 0 0 64 64;" xml:space="preserve">
<g stroke="none">
	<path d="M57.06,12.46L44.92,0.32C44.71,0.12,44.43,0,44.14,0H15.45c-2.43,0-4.41,1.98-4.41,4.41v50.76c0,2.43,1.98,4.41,4.41,4.41
		h37.52c2.43,0,4.41-1.98,4.41-4.41V13.24C57.38,12.95,57.26,12.67,57.06,12.46z M54.72,13.24h-8.37c-1.22,0-2.21-0.99-2.21-2.21
		V2.66L54.72,13.24z M46.35,15.45h2.21v11.03H19.86V11.03h22.07C41.93,13.47,43.91,15.45,46.35,15.45z M52.97,57.38H15.45
		c-1.22,0-2.21-0.99-2.21-2.21V4.41c0-1.22,0.99-2.21,2.21-2.21h26.48v6.62H18.76c-0.61,0-1.1,0.49-1.1,1.1v17.66
		c0,0.61,0.49,1.1,1.1,1.1h30.9c0.61,0,1.1-0.49,1.1-1.1V15.45h4.41v39.72C55.17,56.39,54.18,57.38,52.97,57.38z"/>
	<path d="M49.66,33.1h-30.9c-0.61,0-1.1,0.49-1.1,1.1s0.49,1.1,1.1,1.1h30.9c0.61,0,1.1-0.49,1.1-1.1S50.27,33.1,49.66,33.1z"/>
	<path d="M49.66,39.72h-30.9c-0.61,0-1.1,0.49-1.1,1.1s0.49,1.1,1.1,1.1h30.9c0.61,0,1.1-0.49,1.1-1.1S50.27,39.72,49.66,39.72z"/>
	<path d="M43.03,46.34H18.76c-0.61,0-1.1,0.49-1.1,1.1s0.49,1.1,1.1,1.1h24.28c0.61,0,1.1-0.49,1.1-1.1S43.64,46.34,43.03,46.34z"/>
	<path d="M48.55,61.79H13.02c-1.16,0-4.2-1.33-4.2-4.32V8.83c0-0.61-0.49-1.1-1.1-1.1s-1.1,0.49-1.1,1.1v48.65
		c0,4.28,4.17,6.52,6.4,6.52h35.53c0.61,0,1.1-0.49,1.1-1.1C49.66,62.29,49.16,61.79,48.55,61.79z"/>
</g>
</svg>
