<?xml version="1.0" encoding="UTF-8"?>
<svg width="30px" height="23px" viewBox="0 0 30 23" version="1.1" xmlns="http://www.w3.org/2000/svg" xmlns:xlink="http://www.w3.org/1999/xlink">
    <defs>
        <polygon id="messages-path" points="4.31654676e-05 0 30 0 30 22.2301079 4.31654676e-05 22.2301079"></polygon>
    </defs>
    <g stroke="none" stroke-width="1" fill-rule="evenodd">
        <g transform="translate(-36.000000, -235.000000)">
            <g transform="translate(36.000000, 235.000000)">
                <path d="M25.6834964,10.5754317 C26.5163741,10.5754317 27.1942878,11.2533453 27.1942878,12.086223 C27.1942878,12.9191007 26.5163741,13.5970144 25.6834964,13.5970144 C24.8506187,13.5970144 24.172705,12.9191007 24.172705,12.086223 C24.172705,11.2533453 24.8506187,10.5754317 25.6834964,10.5754317 M25.6834964,14.4603237 C26.9924892,14.4603237 28.0575971,13.3954317 28.0575971,12.086223 C28.0575971,10.777446 26.9924892,9.7121223 25.6834964,9.7121223 C24.3745036,9.7121223 23.3093957,10.777446 23.3093957,12.086223 C23.3093957,13.3954317 24.3745036,14.4603237 25.6834964,14.4603237"></path>
                <path d="M8.20148201,4.74820144 L17.9137122,4.74820144 C18.1519856,4.74820144 18.3453669,4.55482014 18.3453669,4.31654676 C18.3453669,4.07827338 18.1519856,3.88489209 17.9137122,3.88489209 L8.20148201,3.88489209 C7.96320863,3.88489209 7.76982734,4.07827338 7.76982734,4.31654676 C7.76982734,4.55482014 7.96320863,4.74820144 8.20148201,4.74820144"></path>
                <path d="M8.20148201,6.69064748 L17.9137122,6.69064748 C18.1519856,6.69064748 18.3453669,6.49726619 18.3453669,6.25899281 C18.3453669,6.02071942 18.1519856,5.82733813 17.9137122,5.82733813 L8.20148201,5.82733813 C7.96320863,5.82733813 7.76982734,6.02071942 7.76982734,6.25899281 C7.76982734,6.49726619 7.96320863,6.69064748 8.20148201,6.69064748"></path>
                <path d="M8.20148201,8.63298561 L17.9137122,8.63298561 C18.1519856,8.63298561 18.3453669,8.43982014 18.3453669,8.20133094 C18.3453669,7.96305755 18.1519856,7.76967626 17.9137122,7.76967626 L8.20148201,7.76967626 C7.96320863,7.76967626 7.76982734,7.96305755 7.76982734,8.20133094 C7.76982734,8.43982014 7.96320863,8.63298561 8.20148201,8.63298561"></path>
                <path d="M21.7986043,13.5970144 L12.0863741,13.5970144 C11.8481007,13.5970144 11.6547194,13.7903957 11.6547194,14.0286691 C11.6547194,14.2671583 11.8481007,14.4603237 12.0863741,14.4603237 L21.7986043,14.4603237 C22.0368777,14.4603237 22.230259,14.2671583 22.230259,14.0286691 C22.230259,13.7903957 22.0368777,13.5970144 21.7986043,13.5970144"></path>
                <g>
                    <mask id="messages-mask-2" fill="white">
                        <use xlink:href="#messages-path"></use>
                    </mask>
                    <g id="Clip-12"></g>
                    <path d="M29.1367338,17.4819065 L25.6834964,17.4819065 C25.445223,17.4819065 25.2518417,17.6752878 25.2518417,17.9135612 L25.2518417,20.7564388 L22.1037842,17.6083813 C22.0228489,17.527446 21.9129928,17.4819065 21.7986043,17.4819065 L8.63313669,17.4819065 L8.63313669,12.5178777 L21.7986043,12.5178777 C22.0368777,12.5178777 22.230259,12.3247122 22.230259,12.086223 L22.230259,6.69053957 L29.1367338,6.69053957 L29.1367338,17.4819065 Z M4.31658993,11.6545683 L0.863352518,11.6545683 L0.863352518,0.863201439 L21.3669496,0.863201439 L21.3669496,11.6545683 L8.20148201,11.6545683 C8.17256115,11.6545683 8.14385612,11.6578058 8.11601439,11.6632014 C8.09702158,11.6673022 8.07910791,11.673777 8.06119424,11.680036 C8.05277698,11.6828417 8.04392806,11.6845683 8.03551079,11.6878058 C8.0158705,11.6960072 7.99774101,11.7067986 7.97961151,11.7178058 C7.97356835,11.7214748 7.96730935,11.7238489 7.96148201,11.7277338 C7.93774101,11.7434892 7.91594245,11.7614029 7.8958705,11.7814748 L4.7482446,14.9291007 L4.7482446,12.086223 C4.7482446,11.8479496 4.55486331,11.6545683 4.31658993,11.6545683 L4.31658993,11.6545683 Z M29.5683885,5.82723022 L22.230259,5.82723022 L22.230259,0.431546763 C22.230259,0.193273381 22.0368777,-0.000107913669 21.7986043,-0.000107913669 L0.431697842,-0.000107913669 C0.19342446,-0.000107913669 4.31654676e-05,0.193273381 4.31654676e-05,0.431546763 L4.31654676e-05,12.086223 C4.31654676e-05,12.3247122 0.19342446,12.5178777 0.431697842,12.5178777 L3.88493525,12.5178777 L3.88493525,15.9711151 C3.88493525,16.1457194 3.99004317,16.3032734 4.15126619,16.369964 C4.20457554,16.3921942 4.26069065,16.4027698 4.3163741,16.4027698 C4.42882014,16.4027698 4.53910791,16.3589568 4.62176978,16.276295 L7.76982734,13.1284532 L7.76982734,17.9135612 C7.76982734,18.1520504 7.96320863,18.3452158 8.20148201,18.3452158 L21.6196835,18.3452158 L25.3783165,22.1036331 C25.4609784,22.186295 25.5710504,22.2301079 25.6834964,22.2301079 C25.7391799,22.2301079 25.795295,22.2195324 25.8488201,22.1973022 C26.0100432,22.1306115 26.1151511,21.9730576 26.1151511,21.7984532 L26.1151511,18.3452158 L29.5683885,18.3452158 C29.8066619,18.3452158 30.0000432,18.1520504 30.0000432,17.9135612 L30.0000432,6.25888489 C30.0000432,6.02061151 29.8066619,5.82723022 29.5683885,5.82723022 L29.5683885,5.82723022 Z" mask="url(#messages-mask-2)"></path>
                </g>
                <path d="M4.31658993,7.76978417 C3.4834964,7.76978417 2.80579856,7.0918705 2.80579856,6.25899281 C2.80579856,5.42611511 3.4834964,4.74820144 4.31658993,4.74820144 C5.14946763,4.74820144 5.82738129,5.42611511 5.82738129,6.25899281 C5.82738129,7.0918705 5.14946763,7.76978417 4.31658993,7.76978417 M6.69069065,6.25899281 C6.69069065,4.95 5.62558273,3.88489209 4.31658993,3.88489209 C3.00759712,3.88489209 1.94248921,4.95 1.94248921,6.25899281 C1.94248921,7.56798561 3.00759712,8.63309353 4.31658993,8.63309353 C5.62558273,8.63309353 6.69069065,7.56798561 6.69069065,6.25899281"></path>
            </g>
        </g>
    </g>
</svg>