<?xml version="1.0" encoding="UTF-8"?>
<svg width="34px" height="22px" viewBox="0 0 34 22" version="1.1" xmlns="http://www.w3.org/2000/svg" xmlns:xlink="http://www.w3.org/1999/xlink">
    <defs>
        <polygon id="photos-path" points="0 0.0264819876 33.8394292 0.0264819876 33.8394292 21.540246 0 21.540246"></polygon>
    </defs>
    <g stroke="none" stroke-width="1" fill="none" fill-rule="evenodd">
        <g transform="translate(-349.000000, -268.000000)">
            <g transform="translate(349.000000, 268.000000)">
                <path d="M23.7292335,17.5542422 L22.6990969,17.5542422 C22.8378422,17.157646 22.9109106,16.7380311 22.9109106,16.313559 C22.9109106,14.7497702 21.9472957,13.4077205 20.5832832,12.8468261 C20.991072,12.4658571 21.2478671,11.925236 21.2478671,11.3244286 C21.2478671,10.1745528 20.3123391,9.23902484 19.1624634,9.23902484 C18.0125876,9.23902484 17.0770596,10.1745528 17.0770596,11.3244286 C17.0770596,11.925236 17.3338547,12.4658571 17.7416435,12.8468261 C16.3774199,13.4077205 15.4140161,14.7497702 15.4140161,16.313559 C15.4140161,16.7380311 15.4868733,17.1574348 15.6258298,17.5542422 L14.5956932,17.5542422 L14.5956932,8.42070186 L23.7292335,8.42070186 L23.7292335,17.5542422 Z M17.9217801,11.3244286 C17.9217801,10.6406273 18.4784509,10.0837453 19.1624634,10.0837453 C19.8464758,10.0837453 20.4031466,10.6406273 20.4031466,11.3244286 C20.4031466,12.0086522 19.8464758,12.5651118 19.1624634,12.5651118 C18.4784509,12.5651118 17.9217801,12.0086522 17.9217801,11.3244286 L17.9217801,11.3244286 Z M16.2587366,16.313559 C16.2587366,14.7123913 17.5612957,13.4098323 19.1624634,13.4098323 C20.7634199,13.4098323 22.0661901,14.7123913 22.0661901,16.313559 C22.0661901,16.7443665 21.9694696,17.1686273 21.7872211,17.5542422 L21.2478671,17.5542422 L21.2478671,15.4819317 C21.2478671,15.249 21.0586497,15.0595714 20.8255068,15.0595714 C20.592364,15.0595714 20.4031466,15.249 20.4031466,15.4819317 L20.4031466,17.5542422 L17.9217801,17.5542422 L17.9217801,15.4819317 C17.9217801,15.249 17.7325627,15.0595714 17.4994199,15.0595714 C17.266277,15.0595714 17.0770596,15.249 17.0770596,15.4819317 L17.0770596,17.5542422 L16.5377056,17.5542422 C16.355246,17.1684161 16.2587366,16.7443665 16.2587366,16.313559 L16.2587366,16.313559 Z M24.1515938,7.57598137 L14.1733329,7.57598137 C13.9401901,7.57598137 13.7509727,7.76519876 13.7509727,7.99834161 L13.7509727,17.9766025 C13.7509727,18.2099565 13.9401901,18.3989627 14.1733329,18.3989627 L16.280277,18.3989627 C16.2806994,18.3989627 16.2811217,18.3993851 16.2817553,18.3993851 C16.2823888,18.3993851 16.2828112,18.3989627 16.2834447,18.3989627 L24.1515938,18.3989627 C24.3847366,18.3989627 24.573954,18.2099565 24.573954,17.9766025 L24.573954,7.99834161 C24.573954,7.76519876 24.3847366,7.57598137 24.1515938,7.57598137 L24.1515938,7.57598137 Z" fill="#00A9E6"></path>
                <g transform="translate(0.000000, 0.184783)">
                    <mask id="photos-mask-2" fill="white">
                        <use xlink:href="#photos-path"></use>
                    </mask>
                    <path d="M30.0382398,16.2970658 L30.0382398,15.4160224 C30.0382398,15.1830907 29.8490224,14.9936621 29.6158795,14.9936621 L26.2369975,14.9936621 L26.2369975,12.0371404 L29.6158795,12.0371404 C29.8490224,12.0371404 30.0382398,11.8483453 30.0382398,11.6147801 L30.0382398,10.7337366 L32.8196932,13.5154012 L30.0382398,16.2970658 Z M12.9326497,20.6955255 L25.392277,20.6955255 L25.392277,6.57285466 L12.9326497,6.57285466 L12.9326497,20.6955255 Z M10.081718,17.8536745 L10.081718,3.73100373 L22.5413453,3.73100373 L22.5413453,5.72834534 L12.5102894,5.72834534 C12.2771466,5.72834534 12.0879292,5.91735155 12.0879292,6.15070559 L12.0879292,17.8536745 L10.081718,17.8536745 Z M7.23078634,14.9936621 L7.23078634,11.6853143 C7.23078634,11.6272398 7.21896025,11.5719106 7.19784224,11.5214385 L8.10359379,10.6158981 C8.18278634,10.5367056 8.22734534,10.4290037 8.22734534,10.3172894 C8.22734534,10.2049416 8.18278634,10.0978733 8.10359379,10.0186807 L7.23078634,9.14566211 L7.23078634,0.871202484 L19.6904137,0.871202484 L19.6904137,2.88628323 L9.65935776,2.88628323 C9.42621491,2.88628323 9.23699752,3.07528944 9.23699752,3.30864348 L9.23699752,14.9936621 L7.23078634,14.9936621 Z M4.1137677,11.7402211 L0.844699379,11.7402211 L0.844699379,8.89372422 L4.1137677,8.89372422 C4.34691056,8.89372422 4.53612795,8.70450683 4.53612795,8.47136398 L4.53612795,7.64543851 L7.20755652,10.3172894 L4.53612795,12.988718 L4.53612795,12.1625814 C4.53612795,11.9294385 4.34691056,11.7402211 4.1137677,11.7402211 L4.1137677,11.7402211 Z M29.9144882,9.41555031 C29.7939043,9.29475528 29.6118671,9.2584323 29.4541155,9.32389814 C29.296364,9.38957516 29.1935193,9.54352547 29.1935193,9.71415901 L29.1935193,11.1924199 L26.2369975,11.1924199 L26.2369975,6.15070559 C26.2369975,5.91735155 26.0477801,5.72834534 25.8146373,5.72834534 L23.3860658,5.72834534 L23.3860658,3.30864348 C23.3860658,3.07528944 23.1968484,2.88628323 22.9637056,2.88628323 L20.5351342,2.88628323 L20.5351342,0.448842236 C20.5351342,0.215488199 20.3459168,0.0264819876 20.1127739,0.0264819876 L6.80842609,0.0264819876 C6.57528323,0.0264819876 6.38606584,0.215488199 6.38606584,0.448842236 L6.38606584,8.30094161 L4.4123764,6.32725217 C4.29158137,6.20624596 4.10996646,6.16992298 3.95221491,6.2356 C3.79425217,6.30106584 3.69140745,6.45501615 3.69140745,6.62586087 L3.69140745,8.04900373 L0.42233913,8.04900373 C0.189196273,8.04900373 -2.11180124e-05,8.23800994 -2.11180124e-05,8.47136398 L-2.11180124e-05,12.1625814 C-2.11180124e-05,12.3959354 0.189196273,12.5849416 0.42233913,12.5849416 L3.69140745,12.5849416 L3.69140745,14.0082957 C3.69140745,14.1791404 3.79425217,14.3328795 3.95221491,14.3985565 C4.0043764,14.4198857 4.05907205,14.4306559 4.11355652,14.4306559 C4.22358137,14.4306559 4.33149441,14.3877863 4.4123764,14.3069043 L6.38606584,12.3330037 L6.38606584,15.4160224 C6.38606584,15.6495876 6.57528323,15.8383826 6.80842609,15.8383826 L9.23699752,15.8383826 L9.23699752,18.2760348 C9.23699752,18.5091776 9.42621491,18.698395 9.65935776,18.698395 L12.0879292,18.698395 L12.0879292,21.1178857 C12.0879292,21.3514509 12.2771466,21.540246 12.5102894,21.540246 L25.8146373,21.540246 C26.0477801,21.540246 26.2369975,21.3514509 26.2369975,21.1178857 L26.2369975,15.8383826 L29.1935193,15.8383826 L29.1935193,17.3166435 C29.1935193,17.4874882 29.296364,17.6416497 29.4541155,17.7069043 C29.506277,17.7286559 29.5611839,17.7390037 29.6156683,17.7390037 C29.7256932,17.7390037 29.8336062,17.6961342 29.9144882,17.6152522 L33.7157304,13.8140099 C33.8806621,13.6490783 33.8806621,13.3817242 33.7157304,13.2167925 L29.9144882,9.41555031 Z" fill="#00A9E6" mask="url(#photos-mask-2)"></path>
                </g>
                <path d="M28.1376186,4.14440994 L30.5661901,4.14440994 C30.7993329,4.14440994 30.9885503,3.95519255 30.9885503,3.72204969 L30.9885503,3.31616149 L32.8196932,5.14751553 L30.9885503,6.97886957 L30.9885503,6.57298137 C30.9885503,6.33983851 30.7993329,6.15062112 30.5661901,6.15062112 L28.1376186,6.15062112 L28.1376186,4.14440994 Z M27.7152584,6.99534161 L30.1438298,6.99534161 L30.1438298,7.9984472 C30.1438298,8.16908075 30.2466745,8.32345342 30.4044261,8.38849689 C30.4565876,8.41045963 30.5114944,8.42080745 30.5659789,8.42080745 C30.6760037,8.42080745 30.7839168,8.37772671 30.8647988,8.2970559 L33.7157304,5.44612422 C33.8806621,5.28119255 33.8806621,5.01383851 33.7157304,4.84890683 L30.8647988,1.99797516 C30.7442149,1.87718012 30.5621776,1.84085714 30.4044261,1.90632298 C30.2466745,1.97178882 30.1438298,2.12573913 30.1438298,2.29658385 L30.1438298,3.29968944 L27.7152584,3.29968944 C27.4821155,3.29968944 27.2928981,3.48890683 27.2928981,3.72204969 L27.2928981,6.57298137 C27.2928981,6.80612422 27.4821155,6.99534161 27.7152584,6.99534161 L27.7152584,6.99534161 Z" fill="#00A9E6"></path>
            </g>
        </g>
    </g>
</svg>