<?xml version="1.0" encoding="utf-8"?>
<svg version="1.1" id="Layer_1" xmlns="http://www.w3.org/2000/svg" xmlns:xlink="http://www.w3.org/1999/xlink" x="0px" y="0px"
	 viewBox="0 0 64 64" style="enable-background:new 0 0 64 64;" xml:space="preserve">
<path stroke="none" d="M55.33,10.07c0.19,0.14,0.42,0.22,0.67,0.22c0.63,0,1.14-0.51,1.14-1.14C57.14,8.51,56.63,8,56,8
	s-1.14,0.51-1.14,1.14c0,0.31,0.13,0.6,0.33,0.81c0.02,0.02,0.05,0.04,0.07,0.06C55.28,10.02,55.31,10.05,55.33,10.07z M15.53,33.36
	c-0.19-0.14-0.42-0.22-0.67-0.22c-0.63,0-1.14,0.51-1.14,1.14c0,0.63,0.51,1.14,1.14,1.14c0.63,0,1.14-0.51,1.14-1.14
	c0-0.31-0.13-0.6-0.33-0.8c-0.03-0.02-0.05-0.04-0.07-0.06C15.57,33.4,15.55,33.38,15.53,33.36z M27.88,19.2
	c0.19,0.14,0.43,0.23,0.69,0.23c0.63,0,1.14-0.51,1.14-1.14c0-0.63-0.51-1.14-1.14-1.14c-0.63,0-1.14,0.51-1.14,1.14
	c0,0.32,0.13,0.61,0.35,0.82c0.02,0.01,0.04,0.03,0.06,0.05C27.85,19.17,27.87,19.18,27.88,19.2z M41.31,24.56
	c-0.01,0.03-0.02,0.05-0.04,0.08c-0.01,0.03-0.03,0.05-0.04,0.08c-0.05,0.13-0.08,0.28-0.08,0.43c0,0.63,0.51,1.14,1.14,1.14
	c0.63,0,1.14-0.51,1.14-1.14c0-0.31-0.13-0.6-0.33-0.8c-0.03-0.02-0.05-0.04-0.07-0.06c-0.02-0.02-0.05-0.04-0.07-0.06
	C42.77,24.08,42.54,24,42.29,24C41.87,24,41.51,24.22,41.31,24.56z M30.95,20.75c-0.62,0.59-1.46,0.96-2.38,0.96
	c-0.44,0-0.85-0.08-1.24-0.23l-9.51,11.09c0.29,0.5,0.46,1.09,0.46,1.71c0,1.89-1.54,3.43-3.43,3.43s-3.43-1.53-3.43-3.43
	c0-1.89,1.54-3.43,3.43-3.43c0.44,0,0.85,0.08,1.24,0.23L25.6,20c-0.29-0.5-0.46-1.09-0.46-1.71c0-1.89,1.54-3.43,3.43-3.43
	c1.89,0,3.43,1.53,3.43,3.43c0,0.14-0.01,0.29-0.03,0.42l7.93,3.97c0.62-0.6,1.46-0.96,2.38-0.96c0.44,0,0.85,0.08,1.24,0.23
	l9.51-11.09c-0.29-0.5-0.46-1.09-0.46-1.71c0-1.89,1.54-3.43,3.43-3.43s3.43,1.53,3.43,3.43s-1.54,3.43-3.43,3.43
	c-0.44,0-0.85-0.08-1.24-0.23l-9.51,11.09c0.29,0.5,0.46,1.09,0.46,1.71c0,1.89-1.54,3.43-3.43,3.43s-3.43-1.53-3.43-3.43
	c0-0.14,0.01-0.28,0.03-0.42L30.95,20.75z M57.14,56V21.71h-2.29V56H57.14z M41.14,56h2.29V37.71h-2.29V56z M29.71,56V30.86h-2.29
	V56H29.71z M13.71,56H16v-9.14h-2.29V56z M11.43,56V45.71c0-0.63,0.51-1.14,1.14-1.14h4.57c0.63,0,1.14,0.51,1.14,1.14V56h6.86
	V29.71c0-0.63,0.51-1.14,1.14-1.14h4.57c0.63,0,1.14,0.51,1.14,1.14V56h6.86V36.57c0-0.63,0.51-1.14,1.14-1.14h4.57
	c0.63,0,1.14,0.51,1.14,1.14V56h6.86V20.57c0-0.63,0.51-1.14,1.14-1.14h4.57c0.63,0,1.14,0.51,1.14,1.14V56h3.43
	c0.63,0,1.14,0.51,1.14,1.14s-0.51,1.14-1.14,1.14h-56v3.43c0,0.63-0.51,1.14-1.14,1.14c-0.63,0-1.14-0.51-1.14-1.14v-3.43H1.14
	C0.51,58.29,0,57.77,0,57.14S0.51,56,1.14,56h3.43V2.29c0-0.63,0.51-1.14,1.14-1.14c0.63,0,1.14,0.51,1.14,1.14V56H11.43z"/>
</svg>
