<?xml version="1.0" encoding="UTF-8"?>
<svg width="27px" height="20px" viewBox="0 0 27 20" version="1.1" xmlns="http://www.w3.org/2000/svg" xmlns:xlink="http://www.w3.org/1999/xlink">
    <defs>
        <polygon id="residents-path-1" points="3.88489209e-05 0 27 0 27 20.0071748 3.88489209e-05 20.0071748"></polygon>
        <polygon id="residents-path-3" points="0 20.0071942 27 20.0071942 27 0 0 0"></polygon>
    </defs>
    <g stroke="none" stroke-width="1" fill="none" fill-rule="evenodd">
        <g transform="translate(-353.000000, -201.000000)">
            <g transform="translate(353.000000, 201.000000)">
                <g>
                    <mask id="residents-mask-2" fill="white">
                        <use xlink:href="#residents-path-1"></use>
                    </mask>
                    <path d="M19.1170101,16.9639446 L19.1170101,14.8111317 C19.1170101,14.708182 19.0760245,14.6093115 19.0031827,14.5364698 L14.1956288,9.72891583 C14.0439237,9.57721079 13.7980101,9.57721079 13.646305,9.72891583 L8.83875108,14.5364698 C8.76590935,14.6093115 8.72492374,14.708182 8.72492374,14.8111317 L8.72492374,16.9639446 L0.777017266,16.9639446 L0.777017266,5.17970719 L26.2230604,5.17970719 L26.2230604,16.9639446 L19.1170101,16.9639446 Z M0.777017266,4.40272878 L26.2230604,4.40272878 L26.2230604,0.776958993 L0.777017266,0.776958993 L0.777017266,4.40272878 Z M26.6115496,-1.94244604e-05 L0.388528058,-1.94244604e-05 C0.174082014,-1.94244604e-05 3.88489209e-05,0.173829496 3.88489209e-05,0.388469784 L3.88489209e-05,17.3524338 C3.88489209e-05,17.5668799 0.174082014,17.740923 0.388528058,17.740923 L8.72492374,17.740923 L8.72492374,19.6186856 C8.72492374,19.8331317 8.89896691,20.0071748 9.11341295,20.0071748 C9.32785899,20.0071748 9.50190216,19.8331317 9.50190216,19.6186856 L9.50190216,14.9719662 L13.9209669,10.5529014 L18.3400317,14.9719662 L18.3400317,19.6186856 C18.3400317,19.8331317 18.5140748,20.0071748 18.7285209,20.0071748 C18.9429669,20.0071748 19.1170101,19.8331317 19.1170101,19.6186856 L19.1170101,17.740923 L26.6115496,17.740923 C26.8261899,17.740923 27.0000388,17.5668799 27.0000388,17.3524338 L27.0000388,0.388469784 C27.0000388,0.173829496 26.8261899,-1.94244604e-05 26.6115496,-1.94244604e-05 L26.6115496,-1.94244604e-05 Z" fill="#00A9E6" mask="url(#residents-mask-2)"></path>
                </g>
                <path d="M14.1956482,6.91234964 C14.0439432,6.7606446 13.7980295,6.7606446 13.6463245,6.91234964 L6.07078489,14.4878892 C5.91907986,14.6395942 5.91907986,14.8855079 6.07078489,15.0372129 C6.22248993,15.188918 6.4684036,15.188918 6.62010863,15.0372129 L13.9209863,7.73633525 L21.221864,15.0372129 C21.2978137,15.1131626 21.3970727,15.1510403 21.4965259,15.1510403 C21.5959791,15.1510403 21.6952381,15.1131626 21.7711878,15.0372129 C21.9228928,14.8855079 21.9228928,14.6395942 21.7711878,14.4878892 L14.1956482,6.91234964 Z" fill="#00A9E6"></path>
                <path d="M3.18079424,2.23359928 C3.38164317,2.23359928 3.54500288,2.39695899 3.54500288,2.59780791 C3.54500288,2.79865683 3.38164317,2.96201655 3.18079424,2.96201655 C2.97994532,2.96201655 2.81658561,2.79865683 2.81658561,2.59780791 C2.81658561,2.39695899 2.97994532,2.23359928 3.18079424,2.23359928 M3.18079424,3.73899496 C3.80995252,3.73899496 4.32198129,3.22696619 4.32198129,2.59780791 C4.32198129,1.96864964 3.80995252,1.45662086 3.18079424,1.45662086 C2.55163597,1.45662086 2.03960719,1.96864964 2.03960719,2.59780791 C2.03960719,3.22696619 2.55163597,3.73899496 3.18079424,3.73899496" fill="#00A9E6"></path>
                <path d="M6.52337482,2.23359928 C6.72422374,2.23359928 6.88758345,2.39695899 6.88758345,2.59780791 C6.88758345,2.79865683 6.72422374,2.96201655 6.52337482,2.96201655 C6.3225259,2.96201655 6.15916619,2.79865683 6.15916619,2.59780791 C6.15916619,2.39695899 6.3225259,2.23359928 6.52337482,2.23359928 M6.52337482,3.73899496 C7.15253309,3.73899496 7.66456187,3.22696619 7.66456187,2.59780791 C7.66456187,1.96864964 7.15253309,1.45662086 6.52337482,1.45662086 C5.89421655,1.45662086 5.38218777,1.96864964 5.38218777,2.59780791 C5.38218777,3.22696619 5.89421655,3.73899496 6.52337482,3.73899496" fill="#00A9E6"></path>
                <path d="M9.86611079,2.23359928 C10.0669597,2.23359928 10.2303194,2.39695899 10.2303194,2.59780791 C10.2303194,2.79865683 10.0669597,2.96201655 9.86611079,2.96201655 C9.66526187,2.96201655 9.50190216,2.79865683 9.50190216,2.59780791 C9.50190216,2.39695899 9.66526187,2.23359928 9.86611079,2.23359928 M9.86611079,3.73899496 C10.4952691,3.73899496 11.0072978,3.22696619 11.0072978,2.59780791 C11.0072978,1.96864964 10.4952691,1.45662086 9.86611079,1.45662086 C9.23695252,1.45662086 8.72492374,1.96864964 8.72492374,2.59780791 C8.72492374,3.22696619 9.23695252,3.73899496 9.86611079,3.73899496" fill="#00A9E6"></path>
                <mask id="residents-mask-4" fill="white">
                    <use xlink:href="#residents-path-3"></use>
                </mask>
                <path d="M13.1439496,16.9802806 L14.7301511,16.9802806 L14.7301511,15.3940791 L13.1439496,15.3940791 L13.1439496,16.9802806 Z M15.1186403,14.6171007 L12.7554604,14.6171007 C12.5410144,14.6171007 12.3669712,14.7909496 12.3669712,15.0055899 L12.3669712,17.3687698 C12.3669712,17.5832158 12.5410144,17.757259 12.7554604,17.757259 L15.1186403,17.757259 C15.3332806,17.757259 15.5071295,17.5832158 15.5071295,17.3687698 L15.5071295,15.0055899 C15.5071295,14.7909496 15.3332806,14.6171007 15.1186403,14.6171007 L15.1186403,14.6171007 Z" fill="#00A9E6" mask="url(#residents-mask-4)"></path>
            </g>
        </g>
    </g>
</svg>