<?xml version="1.0" encoding="UTF-8"?>
<svg width="24px" height="18px" viewBox="0 0 24 18" version="1.1" xmlns="http://www.w3.org/2000/svg" xmlns:xlink="http://www.w3.org/1999/xlink">
    <g stroke="none" stroke-width="1" fill-rule="evenodd">
        <g transform="translate(-38.000000, -204.000000)">
            <g transform="translate(38.000000, 204.000000)">
                <path d="M0.690647482,17.0935252 L23.3093525,17.0935252 L23.3093525,0.690647482 L0.690647482,0.690647482 L0.690647482,17.0935252 Z M23.6546763,0 L0.345323741,0 C0.154532374,0 0,0.154532374 0,0.345323741 L0,17.4388489 C0,17.6294676 0.154532374,17.7841727 0.345323741,17.7841727 L23.6546763,17.7841727 C23.845295,17.7841727 24,17.6294676 24,17.4388489 L24,0.345323741 C24,0.154532374 23.845295,0 23.6546763,0 L23.6546763,0 Z"></path>
                <path d="M6.56113381,2.24456978 L17.4388317,2.24456978 C17.6294504,2.24456978 17.7841554,2.08986475 17.7841554,1.89924604 C17.7841554,1.70862734 17.6294504,1.5539223 17.4388317,1.5539223 L6.56113381,1.5539223 C6.37051511,1.5539223 6.21581007,1.70862734 6.21581007,1.89924604 C6.21581007,2.08986475 6.37051511,2.24456978 6.56113381,2.24456978"></path>
                <path d="M11.2230043,5.35248345 L14.330918,5.35248345 C14.5215367,5.35248345 14.6762417,5.19777842 14.6762417,5.00715971 C14.6762417,4.81654101 14.5215367,4.66183597 14.330918,4.66183597 L11.2230043,4.66183597 C11.0323856,4.66183597 10.8776806,4.81654101 10.8776806,5.00715971 C10.8776806,5.19777842 11.0323856,5.35248345 11.2230043,5.35248345"></path>
                <path d="M11.2230043,6.90644029 L14.330918,6.90644029 C14.5215367,6.90644029 14.6762417,6.75173525 14.6762417,6.56111655 C14.6762417,6.37049784 14.5215367,6.21579281 14.330918,6.21579281 L11.2230043,6.21579281 C11.0323856,6.21579281 10.8776806,6.37049784 10.8776806,6.56111655 C10.8776806,6.75173525 11.0323856,6.90644029 11.2230043,6.90644029"></path>
                <path d="M8.46043165,15.5395683 L10.8776978,15.5395683 L10.8776978,14.676259 L8.46043165,14.676259 L8.46043165,15.5395683 Z M8.46043165,13.9856115 L10.8776978,13.9856115 L10.8776978,13.1223022 L8.46043165,13.1223022 L8.46043165,13.9856115 Z M11.2230216,12.4316547 L8.11510791,12.4316547 C7.92431655,12.4316547 7.76978417,12.5861871 7.76978417,12.7769784 L7.76978417,15.8848921 C7.76978417,16.0755108 7.92431655,16.2302158 8.11510791,16.2302158 L11.2230216,16.2302158 C11.4136403,16.2302158 11.5683453,16.0755108 11.5683453,15.8848921 L11.5683453,12.7769784 C11.5683453,12.5861871 11.4136403,12.4316547 11.2230216,12.4316547 L11.2230216,12.4316547 Z"></path>
                <path d="M13.1223022,15.5395683 L15.5395683,15.5395683 L15.5395683,11.5683453 L13.1223022,11.5683453 L13.1223022,15.5395683 Z M13.1223022,10.8776978 L15.5395683,10.8776978 L15.5395683,10.0143885 L13.1223022,10.0143885 L13.1223022,10.8776978 Z M15.8848921,9.32374101 L12.7769784,9.32374101 C12.5861871,9.32374101 12.4316547,9.47827338 12.4316547,9.66906475 L12.4316547,15.8848921 C12.4316547,16.0755108 12.5861871,16.2302158 12.7769784,16.2302158 L15.8848921,16.2302158 C16.0755108,16.2302158 16.2302158,16.0755108 16.2302158,15.8848921 L16.2302158,9.66906475 C16.2302158,9.47827338 16.0755108,9.32374101 15.8848921,9.32374101 L15.8848921,9.32374101 Z"></path>
                <path d="M17.7841727,9.32374101 L20.2014388,9.32374101 L20.2014388,6.90647482 L17.7841727,6.90647482 L17.7841727,9.32374101 Z M17.7841727,15.5395683 L20.2014388,15.5395683 L20.2014388,10.0143885 L17.7841727,10.0143885 L17.7841727,15.5395683 Z M17.0935252,6.56115108 L17.0935252,15.8848921 C17.0935252,16.0755108 17.2480576,16.2302158 17.4388489,16.2302158 L20.5467626,16.2302158 C20.7373813,16.2302158 20.8920863,16.0755108 20.8920863,15.8848921 L20.8920863,6.56115108 C20.8920863,6.37035971 20.7373813,6.21582734 20.5467626,6.21582734 L17.4388489,6.21582734 C17.2480576,6.21582734 17.0935252,6.37035971 17.0935252,6.56115108 L17.0935252,6.56115108 Z"></path>
                <path d="M6.21581007,5.37651799 L6.21581007,7.97197122 L4.38162302,9.80633094 C4.0176518,9.33841727 3.79854388,8.75240288 3.79854388,8.11510791 C3.79854388,6.70894964 4.85540719,5.54728058 6.21581007,5.37651799 M9.29972374,7.76978417 L6.90645755,7.76978417 L6.90645755,5.37651799 C8.15359424,5.5331223 9.14329209,6.52264748 9.29972374,7.76978417 M6.56113381,10.8776978 C5.92383885,10.8776978 5.33782446,10.6585899 4.86991079,10.2946187 L6.70409784,8.46043165 L9.29972374,8.46043165 C9.12896115,9.82100719 7.96729209,10.8776978 6.56113381,10.8776978 M6.56113381,11.5683453 C8.46524892,11.5683453 10.0143712,10.019223 10.0143712,8.11510791 C10.0143712,6.21099281 8.46524892,4.6618705 6.56113381,4.6618705 C4.65701871,4.6618705 3.1078964,6.21099281 3.1078964,8.11510791 C3.1078964,10.019223 4.65701871,11.5683453 6.56113381,11.5683453"></path>
            </g>
        </g>
    </g>
</svg>