<?xml version="1.0" encoding="utf-8"?>
<svg version="1.1" xmlns="http://www.w3.org/2000/svg" xmlns:xlink="http://www.w3.org/1999/xlink"
	 viewBox="0 0 64 64" style="enable-background:new 0 0 64 64;" xml:space="preserve">
<g stroke="none">
	<path d="M33.95,52.77c-0.67,0-1.22,0.55-1.22,1.22v8.79c0,0.67,0.55,1.22,1.22,1.22c0.67,0,1.22-0.55,1.22-1.22v-8.79
		C35.17,53.31,34.63,52.77,33.95,52.77z"/>
	<path d="M45.68,38.11c-0.67,0-1.22,0.55-1.22,1.22v5.86c0,2.56-2.08,4.64-4.64,4.64c-0.67,0-1.22,0.55-1.22,1.22
		s0.55,1.22,1.22,1.22c3.91,0,7.08-3.17,7.08-7.08v-5.86C46.9,38.66,46.35,38.11,45.68,38.11z"/>
	<path d="M43.23,52.77c-0.67,0-1.22,0.55-1.22,1.22v8.79c0,0.67,0.55,1.22,1.22,1.22s1.22-0.55,1.22-1.22v-8.79
		C44.45,53.31,43.9,52.77,43.23,52.77z"/>
	<path d="M54.96,38.11c-0.67,0-1.22,0.55-1.22,1.22v5.86c0,2.56-2.08,4.64-4.64,4.64c-0.67,0-1.22,0.55-1.22,1.22
		s0.55,1.22,1.22,1.22c3.91,0,7.08-3.17,7.08-7.08v-5.86C56.18,38.66,55.63,38.11,54.96,38.11z"/>
	<path d="M60.98,34.01l-4.81-12.5C56.05,9.61,46.37,0,34.44,0H16.89c-0.07,0-0.13,0.03-0.2,0.04C16.42,0.03,16.15,0,15.88,0
		c-0.67,0-1.22,0.55-1.22,1.22s0.55,1.22,1.22,1.22c10.66,0,19.3,8.64,19.3,19.3c0,0.15,0.03,0.3,0.08,0.44l4.8,12.49v0.51H36.4
		c-0.67,0-1.22,0.55-1.22,1.22v8.79c0,2.56-2.08,4.64-4.64,4.64h-5.86h-2.93c-0.67,0-1.22,0.55-1.22,1.22s0.55,1.22,1.22,1.22h1.71
		v10.51c0,0.67,0.55,1.22,1.22,1.22s1.22-0.55,1.22-1.22V52.27h4.64c3.91,0,7.08-3.17,7.08-7.08v-7.58h3.67
		c0.67,0,1.22-0.55,1.22-1.22v-1.95c0-0.15-0.03-0.3-0.08-0.44l-4.81-12.5c-0.09-8.28-4.8-15.44-11.68-19.03
		c10.29,0.41,18.52,8.87,18.52,19.26c0,0.15,0.03,0.3,0.08,0.44l4.8,12.49v0.51h-2.69c-0.67,0-1.22,0.55-1.22,1.22
		c0,0.67,0.55,1.22,1.22,1.22h3.91c0.67,0,1.22-0.55,1.22-1.22v-1.95c0-0.15-0.03-0.3-0.08-0.44l-4.81-12.5
		c-0.09-8.28-4.8-15.44-11.68-19.03c10.29,0.41,18.52,8.87,18.52,19.26c0,0.15,0.03,0.3,0.08,0.44l4.8,12.49v0.51h-2.69
		c-0.67,0-1.22,0.55-1.22,1.22c0,0.67,0.55,1.22,1.22,1.22h3.91c0.67,0,1.22-0.55,1.22-1.22v-1.95
		C61.06,34.29,61.03,34.15,60.98,34.01z"/>
	<path d="M11,20.03h13.67l-1.83,1.83c-0.48,0.48-0.48,1.25,0,1.72c0.48,0.48,1.25,0.48,1.72,0l3.91-3.91
		c0.11-0.11,0.2-0.25,0.26-0.4c0.06-0.15,0.09-0.31,0.09-0.46c0,0,0,0,0,0l0,0c0-0.16-0.03-0.32-0.09-0.47
		c-0.06-0.15-0.15-0.28-0.26-0.4l-3.91-3.91c-0.48-0.48-1.25-0.48-1.72,0c-0.48,0.48-0.48,1.25,0,1.72l1.83,1.83H11
		c-0.67,0-1.22,0.55-1.22,1.22S10.32,20.03,11,20.03z"/>
	<path d="M7.1,27.51h13.67c0.67,0,1.22-0.55,1.22-1.22c0-0.67-0.55-1.22-1.22-1.22H7.1l1.83-1.83c0.48-0.48,0.48-1.25,0-1.72
		c-0.48-0.48-1.25-0.48-1.72,0l-3.91,3.91c0,0,0,0,0,0.01c-0.11,0.11-0.2,0.24-0.26,0.39c-0.06,0.15-0.09,0.31-0.09,0.47l0,0
		c0,0,0,0,0,0c0,0.16,0.03,0.32,0.09,0.46c0.06,0.15,0.15,0.28,0.26,0.39c0,0,0,0,0,0.01l3.91,3.91c0.48,0.48,1.25,0.48,1.72,0
		s0.48-1.25,0-1.72L7.1,27.51z"/>
</g>
</svg>
