<?xml version="1.0" encoding="utf-8"?>
<svg version="1.1" id="Layer_1" xmlns="http://www.w3.org/2000/svg" xmlns:xlink="http://www.w3.org/1999/xlink" x="0px" y="0px"
	 viewBox="0 0 64 64" style="enable-background:new 0 0 64 64;" xml:space="preserve">
<path stroke="none" d="M40.77,55.76c0.49-0.49,1.26-0.56,1.84-0.18c1.04,0.69,2.21,1.17,3.45,1.42
	c0.68,0.14,1.17,0.73,1.17,1.41v2.11h1.57v-2.11c0-0.68,0.49-1.27,1.16-1.41c1.24-0.25,2.42-0.74,3.45-1.42
	c0.58-0.38,1.35-0.31,1.84,0.18l1.31,1.29l1.05-1.04l-1.3-1.29c-0.49-0.49-0.57-1.25-0.18-1.82c0.69-1.03,1.18-2.19,1.43-3.42
	c0.14-0.67,0.73-1.15,1.43-1.15h2.13v-1.55h-2.13c-0.69,0-1.29-0.48-1.43-1.15c-0.25-1.23-0.75-2.4-1.44-3.42
	c-0.38-0.57-0.31-1.33,0.18-1.82l1.3-1.29l-1.05-1.04l-1.3,1.29c-0.49,0.49-1.26,0.56-1.84,0.18c-1.04-0.69-2.21-1.18-3.45-1.42
	c-0.68-0.14-1.17-0.73-1.17-1.41v-2.11h-1.57v2.11c0,0.69-0.49,1.28-1.17,1.41c-1.24,0.25-2.41,0.73-3.45,1.42
	c-0.58,0.38-1.35,0.31-1.84-0.18l-1.3-1.29l-1.05,1.04l1.3,1.29c0.49,0.49,0.57,1.25,0.18,1.82c-0.69,1.02-1.18,2.18-1.43,3.42
	c-0.14,0.67-0.73,1.15-1.43,1.15h-2.13v1.55h2.13c0.69,0,1.29,0.48,1.42,1.15c0.26,1.23,0.75,2.4,1.44,3.42
	c0.39,0.57,0.31,1.33-0.18,1.82l-1.3,1.29l1.05,1.04L40.77,55.76z M41.27,59.34c-1,0.99-2.61,0.99-3.61,0L36.1,57.8
	c-0.99-0.99-0.99-2.59,0-3.57l0.75-0.75c-0.39-0.72-0.71-1.48-0.95-2.27h-1.34c-1.42,0-2.57-1.14-2.57-2.55v-2.22
	c0-1.41,1.15-2.55,2.57-2.55h1.33c0.24-0.79,0.56-1.55,0.95-2.27l-0.75-0.75c-1-0.99-1-2.59,0-3.58l1.56-1.54
	c1-0.98,2.61-0.98,3.61,0l0.75,0.75c0.73-0.39,1.49-0.7,2.29-0.94v-1.32c0-1.41,1.15-2.55,2.57-2.55h2.24
	c1.42,0,2.57,1.14,2.57,2.55v1.32c0.79,0.24,1.56,0.56,2.29,0.94l0.75-0.75c1-0.99,2.61-0.99,3.61,0l1.56,1.54
	c0.99,0.99,0.99,2.58,0,3.57l-0.76,0.75c0.39,0.72,0.71,1.48,0.95,2.26h1.34c1.42,0,2.57,1.14,2.57,2.55v2.22
	c0,1.41-1.15,2.55-2.57,2.55h-1.33c-0.24,0.79-0.56,1.55-0.95,2.27l0.75,0.75c1,0.99,1,2.59,0,3.58l-1.56,1.54
	c-1,0.98-2.61,0.98-3.61,0l-0.76-0.75c-0.73,0.38-1.49,0.7-2.29,0.94v1.33c0,1.41-1.15,2.55-2.57,2.55h-2.24
	c-1.42,0-2.57-1.14-2.57-2.55v-1.32c-0.79-0.24-1.56-0.55-2.29-0.94L41.27,59.34z M52.36,47.56c0-2.39-1.95-4.32-4.36-4.32
	s-4.36,1.94-4.36,4.32s1.95,4.32,4.36,4.32S52.36,49.94,52.36,47.56z M55.27,47.56c0,3.98-3.26,7.21-7.27,7.21s-7.27-3.23-7.27-7.21
	s3.26-7.21,7.27-7.21S55.27,43.58,55.27,47.56z M18.92,11.53h3.57l2.48-3.68c0.58-0.86,1.84-0.86,2.42,0l2.48,3.68h6.48
	c-0.22-4.94-3.58-8.65-8.72-8.65C22.49,2.88,19.14,6.59,18.92,11.53z M21.48,25.6c-0.96-1.4-1.7-3.26-2.29-5.56
	c-0.34-0.08-0.66-0.19-0.95-0.34c-0.43,1.43-1.05,2.59-1.85,3.54c-0.3,0.36-0.7,0.74-1.07,1.06c0.56,0.21,1.27,0.42,2.1,0.61
	C18.62,25.2,19.99,25.43,21.48,25.6z M37.03,19.69c-0.29,0.15-0.61,0.27-0.94,0.35c-0.59,2.31-1.34,4.17-2.31,5.58
	c1.5-0.17,2.88-0.39,4.07-0.66c0.86-0.2,1.59-0.41,2.16-0.62c-0.39-0.34-0.82-0.75-1.13-1.11C38.08,22.28,37.46,21.12,37.03,19.69z
	 M16,14.41v-2.36C16,5.36,20.59,0,27.64,0c7.04,0,11.64,5.36,11.64,12.05v2.36c0,3.47,0.69,5.6,1.84,6.97
	c0.4,0.48,1.91,1.66,2.15,1.99c0.24,0.33,0.37,0.71,0.37,1.13c0,2.67-7.12,4.31-15.88,4.32c-0.04,0-0.08,0-0.12,0
	c-0.04,0-0.08,0-0.12,0c-8.63-0.02-15.88-1.71-15.88-4.32c0-0.37,0.11-0.7,0.3-1c0.24-0.39,1.82-1.6,2.22-2.09
	C15.31,20.03,16,17.88,16,14.41z M27.55,25.94c0.03,0,0.06,0,0.09,0c0.03,0,0.06,0,0.09,0c2.95-0.04,4.58-2.31,5.77-7.52
	c0.15-0.66,0.74-1.12,1.42-1.12c0.97,0,1.45-0.48,1.45-1.7v-1.18h-7.27c-0.49,0-0.94-0.24-1.21-0.64l-1.7-2.52l-1.7,2.52
	c-0.27,0.4-0.72,0.64-1.21,0.64h-4.36v1.18c0,1.26,0.43,1.7,1.45,1.7c0.68,0,1.27,0.47,1.42,1.12C22.97,23.63,24.6,25.9,27.55,25.94
	z M24.33,38.35c-1.14-1.27-2.26-3.03-3.24-4.99l-1.61,6.36L24.33,38.35z M30.95,38.35l0.49,0.14c0.77,0.22,1.22,1.02,1,1.78
	c-0.22,0.77-1.03,1.21-1.8,0.99l-3-0.85l-9.78,2.77c-1.08,0.3-2.08-0.66-1.81-1.74l2.42-9.54c-10,1.47-13.85,4.61-15.55,12.92
	l0,1.43c0,0.01,0,0.02,0,0.01c0,1.54,2.34,2.38,7.38,2.75c0.44,0.03,0.84,0.26,1.09,0.61c0.56,0.79,3.46,1.55,7.61,1.94
	c1.62,0.15,3.35,0.24,5.13,0.29c1.21,0.03,2.16,0.04,3.29,0.04l0.23,0c0.61,0,1.12,0,1.83-0.02c0.8-0.01,1.47,0.62,1.48,1.42
	s-0.63,1.45-1.43,1.47c-0.73,0.01-1.26,0.02-1.88,0.02l-0.22,0c-1.15,0-2.13-0.01-3.38-0.04c-1.84-0.05-3.64-0.15-5.32-0.3
	c-4.55-0.42-7.69-1.16-9.22-2.59C3.2,51.32,0,50.05,0,46.26c0-0.09,0-0.18,0.01-0.13L0,44.68l0.03-0.29
	c2.08-10.34,7.41-14.14,20.16-15.62c1.14-0.13,2.24,0.5,2.7,1.56c1.48,3.46,4.07,7.14,4.75,7.14c0.68,0,3.27-3.69,4.75-7.15
	c0.45-1.05,1.55-1.68,2.7-1.55c1.48,0.17,2.83,0.37,4.08,0.6c0.79,0.15,1.31,0.9,1.16,1.68c-0.15,0.78-0.91,1.3-1.7,1.15
	c-1.12-0.21-2.33-0.39-3.66-0.54C33.84,34.28,32.41,36.72,30.95,38.35z"/>
</svg>
