<?xml version="1.0" encoding="UTF-8"?>
<svg width="32px" height="20px" viewBox="0 0 32 20" version="1.1" xmlns="http://www.w3.org/2000/svg" xmlns:xlink="http://www.w3.org/1999/xlink">
    <defs>
        <polygon id="transportation-path-1" points="9.6969697e-05 0.101469091 31.9996121 0.101469091 31.9996121 16.9094206 9.6969697e-05 16.9094206"></polygon>
    </defs>
    <g stroke="none" stroke-width="1" fill="none" fill-rule="evenodd">
        <g transform="translate(-36.000000, -270.000000)">
            <g transform="translate(36.000000, 270.000000)">
                <path d="M7.71993212,14.9619782 C7.36812606,14.9619782 7.08167758,14.6755297 7.08167758,14.3237236 C7.08167758,13.9719176 7.36812606,13.6854691 7.71993212,13.6854691 C8.07173818,13.6854691 8.35818667,13.9719176 8.35818667,14.3237236 C8.35818667,14.6755297 8.07173818,14.9619782 7.71993212,14.9619782 M7.71993212,12.9097115 C6.94010182,12.9097115 6.30592,13.5438933 6.30592,14.3237236 C6.30592,15.10336 6.94010182,15.7377358 7.71993212,15.7377358 C8.49976242,15.7377358 9.13394424,15.10336 9.13394424,14.3237236 C9.13394424,13.5438933 8.49976242,12.9097115 7.71993212,12.9097115" fill="#00A9E6"></path>
                <path d="M24.1036412,14.9619782 C23.7518352,14.9619782 23.4653867,14.6755297 23.4653867,14.3237236 C23.4653867,13.9719176 23.7518352,13.6854691 24.1036412,13.6854691 C24.4554473,13.6854691 24.7418958,13.9719176 24.7418958,14.3237236 C24.7418958,14.6755297 24.4554473,14.9619782 24.1036412,14.9619782 M24.1036412,12.9097115 C23.3238109,12.9097115 22.6896291,13.5438933 22.6896291,14.3237236 C22.6896291,15.10336 23.3238109,15.7377358 24.1036412,15.7377358 C24.8834715,15.7377358 25.5176533,15.10336 25.5176533,14.3237236 C25.5176533,13.5438933 24.8834715,12.9097115 24.1036412,12.9097115" fill="#00A9E6"></path>
                <path d="M10.3616,7.06480485 L6.16882424,7.06480485 L6.16882424,3.26010182 L9.97372121,3.26010182 L9.97372121,5.16225939 C9.97372121,5.37656242 10.1474909,5.55013818 10.3616,5.55013818 C10.5757091,5.55013818 10.7494788,5.37656242 10.7494788,5.16225939 L10.7494788,2.87222303 C10.7494788,2.65792 10.5757091,2.48434424 10.3616,2.48434424 L5.78094545,2.48434424 C5.56664242,2.48434424 5.39306667,2.65792 5.39306667,2.87222303 L5.39306667,7.45268364 C5.39306667,7.66679273 5.56664242,7.84056242 5.78094545,7.84056242 L10.3616,7.84056242 C10.5757091,7.84056242 10.7494788,7.66679273 10.7494788,7.45268364 C10.7494788,7.23857455 10.5757091,7.06480485 10.3616,7.06480485" fill="#00A9E6"></path>
                <path d="M12.6519467,7.84056242 L17.2326012,7.84056242 C17.4469042,7.84056242 17.62048,7.66679273 17.62048,7.45268364 C17.62048,7.23857455 17.4469042,7.06480485 17.2326012,7.06480485 L13.0398255,7.06480485 L13.0398255,3.26010182 L16.8447224,3.26010182 L16.8447224,5.16225939 C16.8447224,5.37656242 17.0184921,5.55013818 17.2326012,5.55013818 C17.4469042,5.55013818 17.62048,5.37656242 17.62048,5.16225939 L17.62048,2.87222303 C17.62048,2.65792 17.4469042,2.48434424 17.2326012,2.48434424 L12.6519467,2.48434424 C12.4378376,2.48434424 12.2640679,2.65792 12.2640679,2.87222303 L12.2640679,7.45268364 C12.2640679,7.66679273 12.4378376,7.84056242 12.6519467,7.84056242" fill="#00A9E6"></path>
                <path d="M19.5229673,7.84056242 L26.3940461,7.84056242 C26.6081552,7.84056242 26.7819248,7.66679273 26.7819248,7.45268364 C26.7819248,7.23857455 26.6081552,7.06480485 26.3940461,7.06480485 L19.9108461,7.06480485 L19.9108461,3.26010182 L21.6524218,3.26010182 L23.8293915,5.4364897 C23.9808582,5.5881503 24.2265794,5.5881503 24.3778521,5.4364897 C24.5293188,5.28521697 24.5293188,5.0396897 24.3778521,4.88802909 L22.0876218,2.59799273 C22.0148945,2.52526545 21.9161794,2.48434424 21.8133915,2.48434424 L19.5229673,2.48434424 C19.3088582,2.48434424 19.1350885,2.65792 19.1350885,2.87222303 L19.1350885,7.45268364 C19.1350885,7.66679273 19.3088582,7.84056242 19.5229673,7.84056242" fill="#00A9E6"></path>
                <path d="M12.6519467,10.1309091 L14.9423709,10.1309091 C15.15648,10.1309091 15.3302497,9.95713939 15.3302497,9.7430303 C15.3302497,9.52892121 15.15648,9.35515152 14.9423709,9.35515152 L12.6519467,9.35515152 C12.4378376,9.35515152 12.2640679,9.52892121 12.2640679,9.7430303 C12.2640679,9.95713939 12.4378376,10.1309091 12.6519467,10.1309091" fill="#00A9E6"></path>
                <path d="M19.5229673,10.1309091 L21.8133915,10.1309091 C22.0275006,10.1309091 22.2012703,9.95713939 22.2012703,9.7430303 C22.2012703,9.52892121 22.0275006,9.35515152 21.8133915,9.35515152 L19.5229673,9.35515152 C19.3088582,9.35515152 19.1350885,9.52892121 19.1350885,9.7430303 C19.1350885,9.95713939 19.3088582,10.1309091 19.5229673,10.1309091" fill="#00A9E6"></path>
                <g transform="translate(0.000000, 0.092509)">
                    <mask id="transportation-mask-2" fill="white">
                        <use xlink:href="#transportation-path-1"></use>
                    </mask>
                    <path d="M9.60242424,16.133663 C10.0060121,15.7341479 10.2810182,15.2072145 10.3667394,14.6189964 L21.4567758,14.6189964 C21.5426909,15.2072145 21.817503,15.7341479 22.2210909,16.133663 L9.60242424,16.133663 Z M5.81750303,14.2311176 C5.81750303,13.1820994 6.67083636,12.3287661 7.71985455,12.3287661 C8.76906667,12.3287661 9.6224,13.1820994 9.6224,14.2311176 C9.6224,15.2803297 8.76906667,16.133663 7.71985455,16.133663 C6.67083636,16.133663 5.81750303,15.2803297 5.81750303,14.2311176 L5.81750303,14.2311176 Z M3.87849697,10.0383418 L10.361697,10.0383418 C10.5758061,10.0383418 10.7495758,9.86476606 10.7495758,9.65046303 C10.7495758,9.43635394 10.5758061,9.26258424 10.361697,9.26258424 L3.87849697,9.26258424 L3.87849697,0.877226667 L22.233503,0.877226667 L29.0902303,7.52430545 L29.0902303,9.26258424 L24.1036606,9.26258424 C23.8893576,9.26258424 23.7157818,9.43635394 23.7157818,9.65046303 C23.7157818,9.86476606 23.8893576,10.0383418 24.1036606,10.0383418 L29.0902303,10.0383418 L29.0902303,13.8432388 L26.7503515,13.8432388 C26.5614545,12.5500509 25.4484364,11.5530085 24.1036606,11.5530085 C22.7588848,11.5530085 21.6456727,12.5500509 21.4567758,13.8432388 L10.3667394,13.8432388 C10.1778424,12.5500509 9.06482424,11.5530085 7.71985455,11.5530085 C6.37527273,11.5530085 5.26206061,12.5500509 5.07316364,13.8432388 L3.87849697,13.8432388 L3.87849697,10.0383418 Z M24.1036606,16.133663 C23.0546424,16.133663 22.2011152,15.2803297 22.2011152,14.2311176 C22.2011152,13.1820994 23.0546424,12.3287661 24.1036606,12.3287661 C25.1526788,12.3287661 26.0062061,13.1820994 26.0062061,14.2311176 C26.0062061,15.2803297 25.1526788,16.133663 24.1036606,16.133663 L24.1036606,16.133663 Z M31.6118303,16.133663 L25.9860364,16.133663 C26.3896242,15.7341479 26.6646303,15.2072145 26.7503515,14.6189964 L29.4781091,14.6189964 C29.6922182,14.6189964 29.8659879,14.4454206 29.8659879,14.2311176 L29.8659879,7.36023273 C29.8659879,7.25531152 29.8235152,7.15485091 29.7480727,7.08173576 L22.6607515,0.21065697 C22.5882182,0.140644848 22.4912485,0.101469091 22.3905939,0.101469091 L3.49061818,0.101469091 C3.27631515,0.101469091 3.10273939,0.275044848 3.10273939,0.489347879 L3.10273939,14.2311176 C3.10273939,14.4454206 3.27631515,14.6189964 3.49061818,14.6189964 L5.07316364,14.6189964 C5.15907879,15.2072145 5.43389091,15.7341479 5.83747879,16.133663 L0.387975758,16.133663 C0.173672727,16.133663 9.6969697e-05,16.3074327 9.6969697e-05,16.5215418 C9.6969697e-05,16.7356509 0.173672727,16.9094206 0.387975758,16.9094206 L31.6118303,16.9094206 C31.8259394,16.9094206 31.9997091,16.7356509 31.9997091,16.5215418 C31.9997091,16.3074327 31.8259394,16.133663 31.6118303,16.133663 L31.6118303,16.133663 Z" fill="#00A9E6" mask="url(#transportation-mask-2)"></path>
                </g>
                <path d="M19.3386861,18.9045915 L0.387898182,18.9045915 C0.173789091,18.9045915 1.93939394e-05,19.0783612 1.93939394e-05,19.2924703 C1.93939394e-05,19.5065794 0.173789091,19.6803491 0.387898182,19.6803491 L19.3386861,19.6803491 C19.5527952,19.6803491 19.7265648,19.5065794 19.7265648,19.2924703 C19.7265648,19.0783612 19.5527952,18.9045915 19.3386861,18.9045915" fill="#00A9E6"></path>
            </g>
        </g>
    </g>
</svg>