<svg id="Layer_1" data-name="Layer 1" xmlns="http://www.w3.org/2000/svg" viewBox="0 0 64 64"><path class="fill" d="M32,0A32,32,0,1,0,64,32,32,32,0,0,0,32,0ZM48.78,23.3c0,.37,0,.75,0,1.13,0,11.57-8.71,24.9-24.64,24.9A24.33,24.33,0,0,1,10.9,45.4a17.17,17.17,0,0,0,12.82-3.62,8.68,8.68,0,0,1-8.09-6.08,8.75,8.75,0,0,0,1.63.16,8.65,8.65,0,0,0,2.28-.31A8.73,8.73,0,0,1,12.59,27v-.11A8.59,8.59,0,0,0,16.52,28a8.75,8.75,0,0,1-3.86-7.28,8.84,8.84,0,0,1,1.17-4.4,24.54,24.54,0,0,0,17.85,9.14,9.33,9.33,0,0,1-.22-2,8.7,8.7,0,0,1,8.66-8.75,8.61,8.61,0,0,1,6.32,2.76,17.23,17.23,0,0,0,5.5-2.12,8.77,8.77,0,0,1-3.81,4.84,17,17,0,0,0,5-1.38A17.41,17.41,0,0,1,48.78,23.3Z"/></svg>